# File produced by Open Asset Import Library (http://www.assimp.sf.net)
# (assimp v3.0.1262)

mtllib fox.stl.obj.mtl

# 1128 vertex positions
v  62.7397 64.0007 64.43
v  65.7337 71.7097 53.433
v  59.4607 63.3737 44.727
v  62.7397 64.0007 64.43
v  62.3567 53.2167 55.205
v  62.7397 48.5727 67.131
v  59.4607 63.3737 44.727
v  62.3567 53.2167 55.205
v  62.7397 64.0007 64.43
v  61.1437 55.7497 44.763
v  62.3567 53.2167 55.205
v  59.4607 63.3737 44.727
v  72.6337 73.9497 92.492
v  68.1527 71.6327 88.725
v  72.4947 70.6477 95.436
v  72.4947 70.6477 95.436
v  68.1527 71.6327 88.725
v  68.6967 67.9657 96.742
v  69.8857 95.8087 36.319
v  66.5407 91.2977 32.159
v  68.8877 86.5657 46.033
v  103.93 92.0047 32.381
v  99.1227 89.3717 47.483
v  100.142 73.0437 44.209
v  53.0437 89.2537 4.645
v  49.7907 80.1437 9.539
v  52.0077 95.3747 10.497
v  64.9967 96.7677 27.875
v  59.9137 88.5997 18.992
v  58.0857 86.5957 25.219
v  64.2817 73.4357 35.395
v  65.7337 71.7097 53.433
v  66.4067 73.4817 43.332
v  58.3427 67.0397 77.391
v  64.2007 71.5687 80.745
v  67.5397 69.7567 67.482
v  62.2927 70.3867 29.543
v  64.1147 68.9937 34.773
v  66.3377 75.3317 25.253
v  61.9607 66.0957 21.981
v  60.3237 60.4477 31.734
v  62.2927 70.3867 29.543
v  50.7327 85.5977 14.79
v  52.0077 95.3747 10.497
v  49.7907 80.1437 9.539
v  53.8897 52.1067 87.291
v  57.2527 48.3757 93.45
v  62.0467 61.2757 97.021
v  45.7937 58.1297 75.27
v  42.6937 55.0737 83.118
v  58.3427 67.0397 77.391
v  100.303 96.5497 14.319
v  101.281 98.7367 27.475
v  103.93 92.0047 32.381
v  55.9447 61.5187 85.809
v  64.2007 71.5687 80.745
v  58.3427 67.0397 77.391
v  79.4697 66.9467 97.004
v  87.8717 55.5957 89.347
v  88.7147 64.7957 79.952
v  93.9177 69.4157 53.485
v  100.142 73.0437 44.209
v  99.1227 89.3717 47.483
v  56.2587 104.481 11.927
v  52.0077 95.3747 10.497
v  50.7327 85.5977 14.79
v  79.0967 73.3047 69.421
v  67.5397 69.7567 67.482
v  69.6467 72.7777 78.164
v  53.8897 52.1067 87.291
v  62.0467 61.2757 97.021
v  56.3497 62.9307 91.595
v  80.0637 78.3637 61.821
v  86.8567 72.6357 62.383
v  85.5467 91.2667 55.622
v  85.5467 91.2667 55.622
v  93.9177 69.4157 53.485
v  99.1227 89.3717 47.483
v  56.4917 105.769 5.715
v  56.2587 104.481 11.927
v  63.9297 112.453 9.685
v  66.5407 91.2977 32.159
v  69.8857 95.8087 36.319
v  67.9447 99.4597 31.56
v  103.93 92.0047 32.381
v  106.427 78.1987 24.339
v  105.611 93.8897 13.705
v  101.281 98.7367 27.475
v  99.1227 89.3717 47.483
v  103.93 92.0047 32.381
v  86.8567 72.6357 62.383
v  93.9177 69.4157 53.485
v  85.5467 91.2667 55.622
v  79.4697 66.9467 97.004
v  71.1117 72.4267 107.482
v  70.7337 67.4367 108.855
v  79.4697 66.9467 97.004
v  71.5387 60.7117 100.677
v  79.7647 58.8947 97.582
v  72.6337 73.9497 92.492
v  79.4697 66.9467 97.004
v  76.9447 71.9657 89.017
v  76.9447 71.9657 89.017
v  68.1527 71.6327 88.725
v  72.6337 73.9497 92.492
v  89.0757 101.636 42.994
v  76.9797 96.9297 47.728
v  85.5467 91.2667 55.622
v  79.4697 66.9467 97.004
v  74.7547 72.6167 99.426
v  71.1117 72.4267 107.482
v  58.3427 67.0397 77.391
v  42.6937 55.0737 83.118
v  55.9447 61.5187 85.809
v  67.5397 69.7567 67.482
v  79.0967 73.3047 69.421
v  74.9987 75.7697 63.069
v  76.9797 96.9297 47.728
v  69.8857 95.8087 36.319
v  68.8877 86.5657 46.033
v  56.4917 105.769 5.715
v  56.7517 101.666 7.334
v  56.2587 104.481 11.927
v  64.7487 77.8587 37.022
v  64.2817 73.4357 35.395
v  66.4067 73.4817 43.332
v  68.6967 67.9657 96.742
v  74.7547 72.6167 99.426
v  72.4947 70.6477 95.436
v  74.7547 72.6167 99.426
v  79.4697 66.9467 97.004
v  72.6337 73.9497 92.492
v  55.5247 71.4407 18.123
v  49.7907 80.1437 9.539
v  55.0467 70.4617 12.451
v  70.1427 103.381 24.352
v  69.8857 95.8087 36.319
v  76.9797 96.9297 47.728
v  68.0777 76.2527 51.989
v  67.5397 69.7567 67.482
v  73.7867 79.4657 57.388
v  65.7337 71.7097 53.433
v  67.5397 69.7567 67.482
v  68.0777 76.2527 51.989
v  93.0657 63.2907 57.241
v  93.9177 69.4157 53.485
v  90.1837 64.8057 63.565
v  62.7397 64.0007 64.43
v  59.1417 51.2107 71.788
v  56.3917 61.8817 73.815
v  76.9447 71.9657 89.017
v  69.6467 72.7777 78.164
v  68.1527 71.6327 88.725
v  95.8307 101.937 6.671
v  85.9207 111.454 5.231
v  92.9337 107.564 24.587
v  100.303 96.5497 14.319
v  103.93 92.0047 32.381
v  105.611 93.8897 13.705
v  60.1487 76.2197 18.811
v  62.2927 70.3867 29.543
v  66.3377 75.3317 25.253
v  60.1487 76.2197 18.811
v  59.9137 88.5997 18.992
v  54.4187 82.9847 16.896
v  66.3377 75.3317 25.253
v  58.0857 86.5957 25.219
v  60.1487 76.2197 18.811
v  59.9137 88.5997 18.992
v  64.4427 97.2517 17.991
v  54.4187 82.9847 16.896
v  51.6527 77.7027 5.334
v  49.7907 80.1437 9.539
v  53.0437 89.2537 4.645
v  66.3377 75.3317 25.253
v  64.7487 77.8587 37.022
v  65.6957 83.8437 30.958
v  101.281 98.7367 27.475
v  95.8307 101.937 6.671
v  92.9337 107.564 24.587
v  106.427 78.1987 24.339
v  105.751 78.7727 12.146
v  105.611 93.8897 13.705
v  70.1427 103.381 24.352
v  72.0057 98.0467 35.14
v  69.8857 95.8087 36.319
v  58.0857 86.5957 25.219
v  66.5407 91.2977 32.159
v  64.9967 96.7677 27.875
v  55.5247 71.4407 18.123
v  60.1487 76.2197 18.811
v  54.4187 82.9847 16.896
v  62.2927 70.3867 29.543
v  60.3237 60.4477 31.734
v  59.4607 63.3737 44.727
v  60.3237 60.4477 31.734
v  61.1437 55.7497 44.763
v  59.4607 63.3737 44.727
v  80.0637 78.3637 61.821
v  79.0967 73.3047 69.421
v  86.8567 72.6357 62.383
v  71.1117 72.4267 107.482
v  74.7547 72.6167 99.426
v  68.6967 67.9657 96.742
v  62.4187 105.175 17.396
v  56.2587 104.481 11.927
v  55.2577 94.4437 15.199
v  54.4187 82.9847 16.896
v  62.4187 105.175 17.396
v  55.2577 94.4437 15.199
v  56.3497 62.9307 91.595
v  62.0467 61.2757 97.021
v  68.1527 71.6327 88.725
v  42.6937 55.0737 83.118
v  53.8897 52.1067 87.291
v  55.9447 61.5187 85.809
v  53.8897 52.1067 87.291
v  56.3497 62.9307 91.595
v  55.9447 61.5187 85.809
v  73.7867 79.4657 57.388
v  80.0637 78.3637 61.821
v  85.5467 91.2667 55.622
v  76.9797 96.9297 47.728
v  68.8877 86.5657 46.033
v  73.7867 79.4657 57.388
v  67.5397 69.7567 67.482
v  65.7337 71.7097 53.433
v  62.7397 64.0007 64.43
v  68.0777 76.2527 51.989
v  73.7867 79.4657 57.388
v  68.8877 86.5657 46.033
v  88.7147 64.7957 79.952
v  79.0967 73.3047 69.421
v  76.9447 71.9657 89.017
v  88.7147 64.7957 79.952
v  91.6437 58.8057 66.964
v  90.1837 64.8057 63.565
v  90.1837 64.8057 63.565
v  86.8567 72.6357 62.383
v  88.7147 64.7957 79.952
v  66.4067 73.4817 43.332
v  68.0777 76.2527 51.989
v  64.7487 77.8587 37.022
v  64.2007 71.5687 80.745
v  69.6467 72.7777 78.164
v  67.5397 69.7567 67.482
v  62.7397 64.0007 64.43
v  58.3427 67.0397 77.391
v  67.5397 69.7567 67.482
v  46.1527 49.3877 76.674
v  42.6937 55.0737 83.118
v  45.7937 58.1297 75.27
v  80.0637 78.3637 61.821
v  74.9987 75.7697 63.069
v  79.0967 73.3047 69.421
v  45.7937 58.1297 75.27
v  56.3917 61.8817 73.815
v  59.1417 51.2107 71.788
v  79.7647 58.8947 97.582
v  87.8717 55.5957 89.347
v  79.4697 66.9467 97.004
v  92.9337 107.564 24.587
v  89.0757 101.636 42.994
v  101.281 98.7367 27.475
v  66.5407 91.2977 32.159
v  58.0857 86.5957 25.219
v  65.6957 83.8437 30.958
v  68.8877 86.5657 46.033
v  64.7487 77.8587 37.022
v  68.0777 76.2527 51.989
v  76.9447 71.9657 89.017
v  79.0967 73.3047 69.421
v  69.6467 72.7777 78.164
v  64.7487 77.8587 37.022
v  66.5407 91.2977 32.159
v  65.6957 83.8437 30.958
v  70.1427 103.381 24.352
v  72.5137 102.735 15.024
v  64.4427 97.2517 17.991
v  64.9967 96.7677 27.875
v  64.4427 97.2517 17.991
v  59.9137 88.5997 18.992
v  50.7327 85.5977 14.79
v  54.4187 82.9847 16.896
v  55.2577 94.4437 15.199
v  60.1487 76.2197 18.811
v  58.0857 86.5957 25.219
v  59.9137 88.5997 18.992
v  90.1837 64.8057 63.565
v  93.9177 69.4157 53.485
v  86.8567 72.6357 62.383
v  59.4607 63.3737 44.727
v  65.7337 71.7097 53.433
v  64.2817 73.4357 35.395
v  64.2817 73.4357 35.395
v  64.7487 77.8587 37.022
v  66.3377 75.3317 25.253
v  64.2817 73.4357 35.395
v  66.3377 75.3317 25.253
v  64.1147 68.9937 34.773
v  62.2927 70.3867 29.543
v  59.4607 63.3737 44.727
v  64.1147 68.9937 34.773
v  56.3497 62.9307 91.595
v  68.1527 71.6327 88.725
v  64.2007 71.5687 80.745
v  69.6467 72.7777 78.164
v  64.2007 71.5687 80.745
v  68.1527 71.6327 88.725
v  67.5397 69.7567 67.482
v  74.9987 75.7697 63.069
v  73.7867 79.4657 57.388
v  62.7397 64.0007 64.43
v  56.3917 61.8817 73.815
v  58.3427 67.0397 77.391
v  65.6957 83.8437 30.958
v  58.0857 86.5957 25.219
v  66.3377 75.3317 25.253
v  66.4067 73.4817 43.332
v  65.7337 71.7097 53.433
v  68.0777 76.2527 51.989
v  86.8567 72.6357 62.383
v  79.0967 73.3047 69.421
v  88.7147 64.7957 79.952
v  73.7867 79.4657 57.388
v  85.5467 91.2667 55.622
v  76.9797 96.9297 47.728
v  67.5157 63.1117 100.677
v  71.1117 72.4267 107.482
v  68.6967 67.9657 96.742
v  80.0637 78.3637 61.821
v  73.7867 79.4657 57.388
v  74.9987 75.7697 63.069
v  56.3917 61.8817 73.815
v  45.7937 58.1297 75.27
v  58.3427 67.0397 77.391
v  62.7397 48.5727 67.131
v  59.1417 51.2107 71.788
v  62.7397 64.0007 64.43
v  89.0757 101.636 42.994
v  85.5467 91.2667 55.622
v  99.1227 89.3717 47.483
v  70.7337 67.4367 108.855
v  71.5387 60.7117 100.677
v  79.4697 66.9467 97.004
v  79.4697 66.9467 97.004
v  88.7147 64.7957 79.952
v  76.9447 71.9657 89.017
v  55.9447 61.5187 85.809
v  56.3497 62.9307 91.595
v  64.2007 71.5687 80.745
v  92.9337 107.564 24.587
v  86.8967 104.877 37.165
v  89.0757 101.636 42.994
v  67.9447 99.4597 31.56
v  72.0057 98.0467 35.14
v  70.1427 103.381 24.352
v  56.7517 101.666 7.334
v  53.0437 89.2537 4.645
v  52.0077 95.3747 10.497
v  56.4917 105.769 5.715
v  53.0437 89.2537 4.645
v  56.7517 101.666 7.334
v  62.0467 61.2757 97.021
v  68.6967 67.9657 96.742
v  68.1527 71.6327 88.725
v  50.7327 85.5977 14.79
v  49.7907 80.1437 9.539
v  55.5247 71.4407 18.123
v  64.3927 48.5547 49.454
v  62.3567 53.2167 55.205
v  61.1437 55.7497 44.763
v  101.281 98.7367 27.475
v  100.303 96.5497 14.319
v  95.8307 101.937 6.671
v  79.7477 107.163 28.629
v  70.1427 103.381 24.352
v  76.9797 96.9297 47.728
v  64.7487 77.8587 37.022
v  68.8877 86.5657 46.033
v  66.5407 91.2977 32.159
v  72.0057 98.0467 35.14
v  67.9447 99.4597 31.56
v  69.8857 95.8087 36.319
v  70.1427 103.381 24.352
v  64.4427 97.2517 17.991
v  64.9967 96.7677 27.875
v  70.1427 103.381 24.352
v  64.9967 96.7677 27.875
v  67.9447 99.4597 31.56
v  54.4187 82.9847 16.896
v  64.4427 97.2517 17.991
v  62.4187 105.175 17.396
v  55.0467 70.4617 12.451
v  62.2927 70.3867 29.543
v  55.5247 71.4407 18.123
v  55.2577 94.4437 15.199
v  56.2587 104.481 11.927
v  50.7327 85.5977 14.79
v  64.9967 96.7677 27.875
v  66.5407 91.2977 32.159
v  67.9447 99.4597 31.56
v  56.7517 101.666 7.334
v  52.0077 95.3747 10.497
v  56.2587 104.481 11.927
v  101.281 98.7367 27.475
v  89.0757 101.636 42.994
v  99.1227 89.3717 47.483
v  55.5247 71.4407 18.123
v  54.4187 82.9847 16.896
v  50.7327 85.5977 14.79
v  67.5157 63.1117 100.677
v  70.7337 67.4367 108.855
v  71.1117 72.4267 107.482
v  64.2817 73.4357 35.395
v  64.1147 68.9937 34.773
v  59.4607 63.3737 44.727
v  62.0467 61.2757 97.021
v  67.5157 63.1117 100.677
v  68.6967 67.9657 96.742
v  55.5247 71.4407 18.123
v  62.2927 70.3867 29.543
v  60.1487 76.2197 18.811
v  76.7027 114.644 10.55
v  62.4187 105.175 17.396
v  64.4427 97.2517 17.991
v  76.7027 114.644 10.55
v  64.4427 97.2517 17.991
v  72.5137 102.735 15.024
v  91.4657 64.8807 10.255
v  95.2477 60.4797 5.287
v  97.4557 70.1027 5.721
v  73.5797 45.8237 7.898
v  73.8997 57.6227 8.835
v  66.6647 56.7317 9.592
v  63.9557 66.5727 10.345
v  61.9607 66.0957 21.981
v  55.0467 70.4617 12.451
v  63.7267 60.6847 10.731
v  63.5847 60.3617 20.252
v  63.9557 66.5727 10.345
v  72.1227 36.2887 105.652
v  75.6967 36.4787 95.19
v  79.1987 42.2137 99.639
v  84.4717 43.5877 75.089
v  75.6967 36.4787 95.19
v  73.8867 36.6617 90.386
v  69.9687 42.1747 90.845
v  67.3947 37.1037 81.132
v  71.7177 37.9417 85.403
v  62.7397 48.5727 67.131
v  67.3947 37.1037 81.132
v  60.8847 43.3057 77.35
v  66.8017 48.6937 2.264
v  66.6647 56.7317 9.592
v  61.4537 52.3167 7.507
v  82.2657 109.807 13.958
v  79.7477 107.163 28.629
v  92.9337 107.564 24.587
v  86.7667 47.7217 82.278
v  84.4717 43.5877 75.089
v  84.4677 45.7867 68.826
v  64.8667 56.3817 24.264
v  72.7967 58.3787 17.734
v  75.3187 56.5777 30.29
v  77.9077 51.1547 36.388
v  75.4497 52.0957 10.817
v  80.5997 50.4247 9.955
v  69.9777 41.3567 98.225
v  69.9687 42.1747 90.845
v  73.5027 40.0787 95.022
v  63.9557 66.5727 10.345
v  63.5847 60.3617 20.252
v  61.9607 66.0957 21.981
v  63.7267 60.6847 10.731
v  61.4537 52.3167 7.507
v  66.6647 56.7317 9.592
v  63.9297 112.453 9.685
v  56.2587 104.481 11.927
v  62.4187 105.175 17.396
v  106.427 78.1987 24.339
v  103.93 92.0047 32.381
v  100.142 73.0437 44.209
v  66.6647 56.7317 9.592
v  72.7967 58.3787 17.734
v  64.8667 56.3817 24.264
v  63.7267 60.6847 10.731
v  66.6647 56.7317 9.592
v  63.5847 60.3617 20.252
v  61.9607 66.0957 21.981
v  62.2927 70.3867 29.543
v  55.0467 70.4617 12.451
v  99.9897 70.1287 31.274
v  88.9737 62.8037 23.198
v  98.6347 62.2517 20.967
v  56.8047 71.2887 7.54
v  63.9557 66.5727 10.345
v  55.0467 70.4617 12.451
v  80.5997 50.4247 9.955
v  87.2437 54.3457 18.197
v  84.9257 49.0767 35.194
v  73.8997 57.6227 8.835
v  72.7967 58.3787 17.734
v  66.6647 56.7317 9.592
v  46.1527 49.3877 76.674
v  45.7937 58.1297 75.27
v  59.1417 51.2107 71.788
v  86.5147 59.1377 5.561
v  88.9737 62.8037 23.198
v  87.2437 54.3457 18.197
v  105.382 70.7057 21.513
v  98.6347 62.2517 20.967
v  97.4557 70.1027 5.721
v  56.8047 71.2887 7.54
v  55.0467 70.4617 12.451
v  49.7907 80.1437 9.539
v  66.6647 56.7317 9.592
v  66.8017 48.6937 2.264
v  73.5797 45.8237 7.898
v  75.4497 52.0957 10.817
v  73.5797 45.8237 7.898
v  80.5997 50.4247 9.955
v  73.5797 45.8237 7.898
v  75.4497 52.0957 10.817
v  73.8997 57.6227 8.835
v  80.7567 45.1117 62.086
v  74.1787 39.8767 73.445
v  71.1897 44.3257 47.58
v  62.7397 48.5727 67.131
v  74.1787 39.8767 73.445
v  67.3947 37.1037 81.132
v  46.1527 49.3877 76.674
v  60.8847 43.3057 77.35
v  57.6357 47.0797 84.879
v  94.4037 62.2077 48.174
v  91.6437 58.8057 66.964
v  84.5967 44.8997 47.078
v  86.7667 47.7217 82.278
v  91.6437 58.8057 66.964
v  87.8717 55.5957 89.347
v  100.142 73.0437 44.209
v  94.4037 62.2077 48.174
v  99.9897 70.1287 31.274
v  57.6357 47.0797 84.879
v  57.2527 48.3757 93.45
v  53.8897 52.1067 87.291
v  84.9257 49.0767 35.194
v  87.2437 54.3457 18.197
v  90.0357 52.9987 40.853
v  87.2437 54.3457 18.197
v  80.5997 50.4247 9.955
v  86.5147 59.1377 5.561
v  62.4187 105.175 17.396
v  76.7027 114.644 10.55
v  63.9297 112.453 9.685
v  84.9257 49.0767 35.194
v  90.0357 52.9987 40.853
v  84.5967 44.8997 47.078
v  91.4657 64.8807 10.255
v  86.5147 59.1377 5.561
v  95.2477 60.4797 5.287
v  88.9737 62.8037 23.198
v  86.5147 59.1377 5.561
v  91.4657 64.8807 10.255
v  105.751 78.7727 12.146
v  105.382 70.7057 21.513
v  97.4557 70.1027 5.721
v  61.4537 52.3167 7.507
v  63.7267 60.6847 10.731
v  56.2117 55.3037 3.742
v  86.8967 104.877 37.165
v  79.7477 107.163 28.629
v  76.9797 96.9297 47.728
v  62.3567 53.2167 55.205
v  64.3927 48.5547 49.454
v  71.1897 44.3257 47.58
v  70.9687 51.0697 98.622
v  71.4387 40.5887 107.704
v  79.1987 42.2137 99.639
v  67.3947 37.1037 81.132
v  69.9687 42.1747 90.845
v  57.2527 48.3757 93.45
v  94.4037 62.2077 48.174
v  88.9737 62.8037 23.198
v  99.9897 70.1287 31.274
v  73.5027 40.0787 95.022
v  69.9687 42.1747 90.845
v  73.8867 36.6617 90.386
v  76.7027 114.644 10.55
v  85.9207 111.454 5.231
v  75.1017 113.868 5.252
v  80.7567 45.1117 62.086
v  84.4677 45.7867 68.826
v  74.1787 39.8767 73.445
v  74.1787 39.8767 73.445
v  62.7397 48.5727 67.131
v  71.1897 44.3257 47.58
v  99.9897 70.1287 31.274
v  98.6347 62.2517 20.967
v  105.382 70.7057 21.513
v  75.6967 36.4787 95.19
v  72.1227 36.2887 105.652
v  73.5027 40.0787 95.022
v  87.8717 55.5957 89.347
v  79.1987 42.2137 99.639
v  75.6967 36.4787 95.19
v  84.4717 43.5877 75.089
v  71.7177 37.9417 85.403
v  74.1787 39.8767 73.445
v  88.9737 62.8037 23.198
v  94.4037 62.2077 48.174
v  90.0357 52.9987 40.853
v  105.751 78.7727 12.146
v  106.427 78.1987 24.339
v  105.382 70.7057 21.513
v  71.1537 51.2897 39.114
v  61.1437 55.7497 44.763
v  75.3187 56.5777 30.29
v  64.8667 56.3817 24.264
v  60.3237 60.4477 31.734
v  63.5847 60.3617 20.252
v  75.4497 52.0957 10.817
v  72.7967 58.3787 17.734
v  73.8997 57.6227 8.835
v  92.9337 107.564 24.587
v  85.9207 111.454 5.231
v  82.2657 109.807 13.958
v  72.4947 70.6477 95.436
v  74.7547 72.6167 99.426
v  72.6337 73.9497 92.492
v  87.8717 55.5957 89.347
v  91.6437 58.8057 66.964
v  88.7147 64.7957 79.952
v  57.2527 48.3757 93.45
v  70.9687 51.0697 98.622
v  62.0467 61.2757 97.021
v  79.7647 58.8947 97.582
v  70.9687 51.0697 98.622
v  79.1987 42.2137 99.639
v  70.9687 51.0697 98.622
v  57.2527 48.3757 93.45
v  68.8037 48.0987 97.149
v  79.7647 58.8947 97.582
v  79.1987 42.2137 99.639
v  87.8717 55.5957 89.347
v  79.7647 58.8947 97.582
v  71.5387 60.7117 100.677
v  70.9687 51.0697 98.622
v  67.3947 37.1037 81.132
v  57.2527 48.3757 93.45
v  57.6357 47.0797 84.879
v  57.6357 47.0797 84.879
v  53.8897 52.1067 87.291
v  46.1527 49.3877 76.674
v  106.427 78.1987 24.339
v  99.9897 70.1287 31.274
v  105.382 70.7057 21.513
v  72.1227 36.2887 105.652
v  79.1987 42.2137 99.639
v  71.4387 40.5887 107.704
v  68.8037 48.0987 97.149
v  69.9777 41.3567 98.225
v  72.1227 36.2887 105.652
v  68.8037 48.0987 97.149
v  72.1227 36.2887 105.652
v  71.4387 40.5887 107.704
v  69.9687 42.1747 90.845
v  71.7177 37.9417 85.403
v  73.8867 36.6617 90.386
v  75.6967 36.4787 95.19
v  73.5027 40.0787 95.022
v  73.8867 36.6617 90.386
v  75.6967 36.4787 95.19
v  84.4717 43.5877 75.089
v  86.7667 47.7217 82.278
v  73.8867 36.6617 90.386
v  71.7177 37.9417 85.403
v  84.4717 43.5877 75.089
v  69.9777 41.3567 98.225
v  68.8037 48.0987 97.149
v  69.9687 42.1747 90.845
v  68.8037 48.0987 97.149
v  57.2527 48.3757 93.45
v  69.9687 42.1747 90.845
v  67.3947 37.1037 81.132
v  57.6357 47.0797 84.879
v  60.8847 43.3057 77.35
v  74.1787 39.8767 73.445
v  84.4677 45.7867 68.826
v  84.4717 43.5877 75.089
v  74.1787 39.8767 73.445
v  71.7177 37.9417 85.403
v  67.3947 37.1037 81.132
v  71.1897 44.3257 47.58
v  64.3927 48.5547 49.454
v  71.1537 51.2897 39.114
v  84.9257 49.0767 35.194
v  77.9077 51.1547 36.388
v  80.5997 50.4247 9.955
v  82.2657 109.807 13.958
v  85.9207 111.454 5.231
v  76.7027 114.644 10.55
v  86.7667 47.7217 82.278
v  87.8717 55.5957 89.347
v  75.6967 36.4787 95.19
v  62.0467 61.2757 97.021
v  70.9687 51.0697 98.622
v  67.5157 63.1117 100.677
v  46.1527 49.3877 76.674
v  59.1417 51.2107 71.788
v  60.8847 43.3057 77.35
v  46.1527 49.3877 76.674
v  53.8897 52.1067 87.291
v  42.6937 55.0737 83.118
v  84.4677 45.7867 68.826
v  91.6437 58.8057 66.964
v  86.7667 47.7217 82.278
v  84.5967 44.8997 47.078
v  91.6437 58.8057 66.964
v  80.7567 45.1117 62.086
v  90.1837 64.8057 63.565
v  91.6437 58.8057 66.964
v  93.0657 63.2907 57.241
v  91.6437 58.8057 66.964
v  94.4037 62.2077 48.174
v  93.0657 63.2907 57.241
v  94.4037 62.2077 48.174
v  93.9177 69.4157 53.485
v  93.0657 63.2907 57.241
v  71.1897 44.3257 47.58
v  62.7397 48.5727 67.131
v  62.3567 53.2167 55.205
v  49.7907 80.1437 9.539
v  51.6527 77.7027 5.334
v  56.8047 71.2887 7.54
v  90.0357 52.9987 40.853
v  87.2437 54.3457 18.197
v  88.9737 62.8037 23.198
v  70.1427 103.381 24.352
v  79.7477 107.163 28.629
v  72.5137 102.735 15.024
v  75.3187 56.5777 30.29
v  75.4497 52.0957 10.817
v  77.9077 51.1547 36.388
v  67.5157 63.1117 100.677
v  71.5387 60.7117 100.677
v  70.7337 67.4367 108.855
v  98.6347 62.2517 20.967
v  88.9737 62.8037 23.198
v  91.4657 64.8807 10.255
v  63.5847 60.3617 20.252
v  60.3237 60.4477 31.734
v  61.9607 66.0957 21.981
v  75.3187 56.5777 30.29
v  61.1437 55.7497 44.763
v  64.8667 56.3817 24.264
v  61.1437 55.7497 44.763
v  60.3237 60.4477 31.734
v  64.8667 56.3817 24.264
v  72.1227 36.2887 105.652
v  69.9777 41.3567 98.225
v  73.5027 40.0787 95.022
v  70.9687 51.0697 98.622
v  71.5387 60.7117 100.677
v  67.5157 63.1117 100.677
v  84.4677 45.7867 68.826
v  80.7567 45.1117 62.086
v  91.6437 58.8057 66.964
v  61.1437 55.7497 44.763
v  71.1537 51.2897 39.114
v  64.3927 48.5547 49.454
v  84.5967 44.8997 47.078
v  80.7567 45.1117 62.086
v  71.1897 44.3257 47.58
v  77.9077 51.1547 36.388
v  84.5967 44.8997 47.078
v  71.1897 44.3257 47.58
v  100.142 73.0437 44.209
v  99.9897 70.1287 31.274
v  106.427 78.1987 24.339
v  97.4557 70.1027 5.721
v  98.6347 62.2517 20.967
v  91.4657 64.8807 10.255
v  79.7477 107.163 28.629
v  82.2657 109.807 13.958
v  72.5137 102.735 15.024
v  94.4037 62.2077 48.174
v  84.5967 44.8997 47.078
v  90.0357 52.9987 40.853
v  71.1537 51.2897 39.114
v  75.3187 56.5777 30.29
v  77.9077 51.1547 36.388
v  84.5967 44.8997 47.078
v  77.9077 51.1547 36.388
v  84.9257 49.0767 35.194
v  71.1537 51.2897 39.114
v  77.9077 51.1547 36.388
v  71.1897 44.3257 47.58
v  75.3187 56.5777 30.29
v  72.7967 58.3787 17.734
v  75.4497 52.0957 10.817
v  66.6647 56.7317 9.592
v  64.8667 56.3817 24.264
v  63.5847 60.3617 20.252
v  72.5137 102.735 15.024
v  82.2657 109.807 13.958
v  76.7027 114.644 10.55
v  59.1417 51.2107 71.788
v  62.7397 48.5727 67.131
v  60.8847 43.3057 77.35
v  76.9797 96.9297 47.728
v  89.0757 101.636 42.994
v  86.8967 104.877 37.165
v  86.8967 104.877 37.165
v  92.9337 107.564 24.587
v  79.7477 107.163 28.629
v  93.9177 69.4157 53.485
v  94.4037 62.2077 48.174
v  100.142 73.0437 44.209
v  68.8037 48.0987 97.149
v  71.4387 40.5887 107.704
v  70.9687 51.0697 98.622
v  53.8865 76.8418 2.24
v  52.3073 78.4873 2.24
v  52.8836 83.7524 2.24
v  57.0754 56.7892 2.24
v  58.8811 58.7136 2.24
v  57.5297 53.4513 2.24
v  66.6694 48.8386 2.24
v  65.1458 65.9348 2.24
v  65.6431 107.922 2.24
v  66.6694 48.8386 2.24
v  59.7396 51.4782 2.24
v  65.1458 65.9348 2.24
v  66.7029 48.7259 2.24
v  59.7396 51.4782 2.24
v  66.6694 48.8386 2.24
v  97.8049 93.3136 2.24
v  95.6423 64.1894 2.24
v  96.94 95.5387 2.24
v  98.52 75.1851 2.24
v  95.6423 64.1894 2.24
v  97.8049 93.3136 2.24
v  78.0023 44.574 2.24
v  71.7627 43.3736 2.24
v  75.6041 112.132 2.24
v  98.7507 90.5562 2.24
v  98.52 75.1851 2.24
v  98.5748 92.9602 2.24
v  100.373 78.4458 2.24
v  98.52 75.1851 2.24
v  98.7507 90.5562 2.24
v  55.8364 98.5699 2.24
v  53.8865 76.8418 2.24
v  54.3466 92.0077 2.24
v  60.9128 105.797 2.24
v  53.8865 76.8418 2.24
v  55.8364 98.5699 2.24
v  62.4848 106.642 2.24
v  53.8865 76.8418 2.24
v  60.9128 105.797 2.24
v  63.1454 67.2406 2.24
v  53.8865 76.8418 2.24
v  62.4848 106.642 2.24
v  59.7396 51.4782 2.24
v  58.8811 58.7136 2.24
v  58.9542 59.6867 2.24
v  59.7396 51.4782 2.24
v  57.5297 53.4513 2.24
v  58.8811 58.7136 2.24
v  81.9193 58.0649 2.24
v  79.3744 45.2335 2.24
v  80.1272 111.127 2.24
v  65.1458 65.9348 2.24
v  63.1454 67.2406 2.24
v  63.925 106.816 2.24
v  89.9966 105.81 2.24
v  84.0256 59.8441 2.24
v  86.7622 109.143 2.24
v  91.3972 60.0086 2.24
v  84.0256 59.8441 2.24
v  89.9966 105.81 2.24
v  58.9542 59.6867 2.24
v  65.1458 65.9348 2.24
v  59.7396 51.4782 2.24
v  97.8049 93.3136 2.24
v  98.5748 92.9602 2.24
v  98.52 75.1851 2.24
v  52.8836 83.7524 2.24
v  54.3466 92.0077 2.24
v  53.8865 76.8418 2.24
v  63.925 106.816 2.24
v  65.6431 107.922 2.24
v  65.1458 65.9348 2.24
v  65.6431 107.922 2.24
v  66.7846 48.9063 2.24
v  66.6694 48.8386 2.24
v  65.6431 107.922 2.24
v  66.9029 49.381 2.24
v  66.7846 48.9063 2.24
v  65.6431 107.922 2.24
v  66.9395 49.2508 2.24
v  66.9029 49.381 2.24
v  65.6431 107.922 2.24
v  66.9926 49.0621 2.24
v  66.9395 49.2508 2.24
v  65.6431 107.922 2.24
v  67.2308 48.2166 2.24
v  66.9926 49.0621 2.24
v  65.6431 107.922 2.24
v  71.7627 43.3736 2.24
v  67.2308 48.2166 2.24
v  65.6431 107.922 2.24
v  75.6041 112.132 2.24
v  71.7627 43.3736 2.24
v  89.9966 105.81 2.24
v  94.8264 60.5315 2.24
v  91.3972 60.0086 2.24
v  89.9966 105.81 2.24
v  95.6423 64.1894 2.24
v  94.8264 60.5315 2.24
v  89.9966 105.81 2.24
v  96.94 95.5387 2.24
v  95.6423 64.1894 2.24
v  75.6041 112.132 2.24
v  79.3744 45.2335 2.24
v  78.0023 44.574 2.24
v  75.6041 112.132 2.24
v  80.1272 111.127 2.24
v  79.3744 45.2335 2.24
v  80.1272 111.127 2.24
v  84.0256 59.8441 2.24
v  81.9193 58.0649 2.24
v  80.1272 111.127 2.24
v  86.7622 109.143 2.24
v  84.0256 59.8441 2.24
v  62.4848 106.642 2.24
v  63.925 106.816 2.24
v  63.1454 67.2406 2.24
v  89.9966 105.81 2.24
v  86.7622 109.143 2.24
v  85.9207 111.454 5.231
v  89.9966 105.81 2.24
v  85.9207 111.454 5.231
v  95.8307 101.937 6.671
v  97.8049 93.3136 2.24
v  96.94 95.5387 2.24
v  95.8307 101.937 6.671
v  97.8049 93.3136 2.24
v  95.8307 101.937 6.671
v  100.303 96.5497 14.319
v  98.5748 92.9602 2.24
v  97.8049 93.3136 2.24
v  100.303 96.5497 14.319
v  98.5748 92.9602 2.24
v  100.303 96.5497 14.319
v  105.611 93.8897 13.705
v  52.8836 83.7524 2.24
v  52.3073 78.4873 2.24
v  51.6527 77.7027 5.334
v  52.8836 83.7524 2.24
v  51.6527 77.7027 5.334
v  53.0437 89.2537 4.645
v  62.4848 106.642 2.24
v  60.9128 105.797 2.24
v  56.4917 105.769 5.715
v  62.4848 106.642 2.24
v  56.4917 105.769 5.715
v  63.9297 112.453 9.685
v  75.6041 112.132 2.24
v  65.6431 107.922 2.24
v  75.1017 113.868 5.252
v  55.8364 98.5699 2.24
v  54.3466 92.0077 2.24
v  53.0437 89.2537 4.645
v  55.8364 98.5699 2.24
v  53.0437 89.2537 4.645
v  56.4917 105.769 5.715
v  98.7507 90.5562 2.24
v  98.5748 92.9602 2.24
v  105.611 93.8897 13.705
v  98.7507 90.5562 2.24
v  105.611 93.8897 13.705
v  105.751 78.7727 12.146
v  100.373 78.4458 2.24
v  98.7507 90.5562 2.24
v  105.751 78.7727 12.146
v  96.94 95.5387 2.24
v  89.9966 105.81 2.24
v  95.8307 101.937 6.671
v  54.3466 92.0077 2.24
v  52.8836 83.7524 2.24
v  53.0437 89.2537 4.645
v  63.1454 67.2406 2.24
v  65.1458 65.9348 2.24
v  63.9557 66.5727 10.345
v  63.1454 67.2406 2.24
v  63.9557 66.5727 10.345
v  56.8047 71.2887 7.54
v  67.2308 48.2166 2.24
v  71.7627 43.3736 2.24
v  73.5797 45.8237 7.898
v  67.2308 48.2166 2.24
v  73.5797 45.8237 7.898
v  66.8017 48.6937 2.264
v  57.5297 53.4513 2.24
v  59.7396 51.4782 2.24
v  61.4537 52.3167 7.507
v  57.5297 53.4513 2.24
v  61.4537 52.3167 7.507
v  56.2117 55.3037 3.742
v  71.7627 43.3736 2.24
v  78.0023 44.574 2.24
v  73.5797 45.8237 7.898
v  84.0256 59.8441 2.24
v  91.3972 60.0086 2.24
v  86.5147 59.1377 5.561
v  52.3073 78.4873 2.24
v  53.8865 76.8418 2.24
v  56.8047 71.2887 7.54
v  52.3073 78.4873 2.24
v  56.8047 71.2887 7.54
v  51.6527 77.7027 5.334
v  65.1458 65.9348 2.24
v  58.9542 59.6867 2.24
v  63.9557 66.5727 10.345
v  95.6423 64.1894 2.24
v  98.52 75.1851 2.24
v  97.4557 70.1027 5.721
v  58.9542 59.6867 2.24
v  58.8811 58.7136 2.24
v  63.7267 60.6847 10.731
v  58.9542 59.6867 2.24
v  63.7267 60.6847 10.731
v  63.9557 66.5727 10.345
v  79.3744 45.2335 2.24
v  81.9193 58.0649 2.24
v  80.5997 50.4247 9.955
v  58.8811 58.7136 2.24
v  57.0754 56.7892 2.24
v  56.2117 55.3037 3.742
v  58.8811 58.7136 2.24
v  56.2117 55.3037 3.742
v  63.7267 60.6847 10.731
v  59.7396 51.4782 2.24
v  66.7029 48.7259 2.24
v  66.8017 48.6937 2.264
v  59.7396 51.4782 2.24
v  66.8017 48.6937 2.264
v  61.4537 52.3167 7.507
v  80.1272 111.127 2.24
v  75.6041 112.132 2.24
v  75.1017 113.868 5.252
v  80.1272 111.127 2.24
v  75.1017 113.868 5.252
v  85.9207 111.454 5.231
v  65.6431 107.922 2.24
v  63.925 106.816 2.24
v  76.7027 114.644 10.55
v  65.6431 107.922 2.24
v  76.7027 114.644 10.55
v  75.1017 113.868 5.252
v  94.8264 60.5315 2.24
v  95.6423 64.1894 2.24
v  97.4557 70.1027 5.721
v  94.8264 60.5315 2.24
v  97.4557 70.1027 5.721
v  95.2477 60.4797 5.287
v  63.925 106.816 2.24
v  62.4848 106.642 2.24
v  63.9297 112.453 9.685
v  63.925 106.816 2.24
v  63.9297 112.453 9.685
v  76.7027 114.644 10.55
v  98.52 75.1851 2.24
v  100.373 78.4458 2.24
v  105.751 78.7727 12.146
v  98.52 75.1851 2.24
v  105.751 78.7727 12.146
v  97.4557 70.1027 5.721
v  81.9193 58.0649 2.24
v  84.0256 59.8441 2.24
v  86.5147 59.1377 5.561
v  81.9193 58.0649 2.24
v  86.5147 59.1377 5.561
v  80.5997 50.4247 9.955
v  53.8865 76.8418 2.24
v  63.1454 67.2406 2.24
v  56.8047 71.2887 7.54
v  57.0754 56.7892 2.24
v  57.5297 53.4513 2.24
v  56.2117 55.3037 3.742
v  78.0023 44.574 2.24
v  79.3744 45.2335 2.24
v  80.5997 50.4247 9.955
v  78.0023 44.574 2.24
v  80.5997 50.4247 9.955
v  73.5797 45.8237 7.898
v  91.3972 60.0086 2.24
v  94.8264 60.5315 2.24
v  95.2477 60.4797 5.287
v  91.3972 60.0086 2.24
v  95.2477 60.4797 5.287
v  86.5147 59.1377 5.561
v  66.7029 48.7259 2.24
v  66.6694 48.8386 2.24
v  66.8017 48.6937 2.264
v  66.9029 49.381 2.24
v  66.9395 49.2508 2.24
v  66.8017 48.6937 2.264
v  66.6694 48.8386 2.24
v  66.7846 48.9063 2.24
v  66.8017 48.6937 2.264
v  66.7846 48.9063 2.24
v  66.9029 49.381 2.24
v  66.8017 48.6937 2.264
v  60.9128 105.797 2.24
v  55.8364 98.5699 2.24
v  56.4917 105.769 5.715
v  86.7622 109.143 2.24
v  80.1272 111.127 2.24
v  85.9207 111.454 5.231
v  66.9926 49.0621 2.24
v  67.2308 48.2166 2.24
v  66.8017 48.6937 2.264
v  66.9395 49.2508 2.24
v  66.9926 49.0621 2.24
v  66.8017 48.6937 2.264

# 0 UV coordinates

# 1128 vertex normals
vn -0.851242 0.509558 0.125449
vn -0.851242 0.509558 0.125449
vn -0.851242 0.509558 0.125449
vn -0.999388 0.00603007 0.0344435
vn -0.999388 0.00603007 0.0344435
vn -0.999388 0.00603007 0.0344435
vn -0.98014 -0.107655 0.166542
vn -0.98014 -0.107655 0.166542
vn -0.98014 -0.107655 0.166542
vn -0.974727 -0.214882 0.0611036
vn -0.974727 -0.214882 0.0611036
vn -0.974727 -0.214882 0.0611036
vn -0.694726 0.494739 0.5221
vn -0.694726 0.494739 0.5221
vn -0.694726 0.494739 0.5221
vn -0.433407 0.808051 0.399014
vn -0.433407 0.808051 0.399014
vn -0.433407 0.808051 0.399014
vn -0.876554 0.390435 0.281448
vn -0.876554 0.390435 0.281448
vn -0.876554 0.390435 0.281448
vn 0.952957 -0.00130369 0.303102
vn 0.952957 -0.00130369 0.303102
vn 0.952957 -0.00130369 0.303102
vn -0.931546 0.156246 -0.328344
vn -0.931546 0.156246 -0.328344
vn -0.931546 0.156246 -0.328344
vn -0.818897 0.571145 -0.0565867
vn -0.818897 0.571145 -0.0565867
vn -0.818897 0.571145 -0.0565867
vn -0.472974 0.872648 0.121574
vn -0.472974 0.872648 0.121574
vn -0.472974 0.872648 0.121574
vn -0.503916 0.829679 -0.240213
vn -0.503916 0.829679 -0.240213
vn -0.503916 0.829679 -0.240213
vn -0.52237 0.761021 0.384677
vn -0.52237 0.761021 0.384677
vn -0.52237 0.761021 0.384677
vn -0.981612 0.181288 -0.0597747
vn -0.981612 0.181288 -0.0597747
vn -0.981612 0.181288 -0.0597747
vn -0.989397 0.142137 0.0298599
vn -0.989397 0.142137 0.0298599
vn -0.989397 0.142137 0.0298599
vn -0.824284 0.155635 0.544365
vn -0.824284 0.155635 0.544365
vn -0.824284 0.155635 0.544365
vn -0.586178 0.805991 0.0823083
vn -0.586178 0.805991 0.0823083
vn -0.586178 0.805991 0.0823083
vn 0.950384 0.287638 -0.118466
vn 0.950384 0.287638 -0.118466
vn 0.950384 0.287638 -0.118466
vn -0.678975 0.687522 0.257499
vn -0.678975 0.687522 0.257499
vn -0.678975 0.687522 0.257499
vn 0.842704 0.34492 0.413376
vn 0.842704 0.34492 0.413376
vn 0.842704 0.34492 0.413376
vn 0.839103 -0.0561251 0.541069
vn 0.839103 -0.0561251 0.541069
vn 0.839103 -0.0561251 0.541069
vn -0.827172 0.312844 0.466814
vn -0.827172 0.312844 0.466814
vn -0.827172 0.312844 0.466814
vn -0.253094 0.942853 -0.216728
vn -0.253094 0.942853 -0.216728
vn -0.253094 0.942853 -0.216728
vn -0.702697 -0.11921 0.701432
vn -0.702697 -0.11921 0.701432
vn -0.702697 -0.11921 0.701432
vn 0.21662 0.346446 0.912716
vn 0.21662 0.346446 0.912716
vn 0.21662 0.346446 0.912716
vn 0.522647 0.117643 0.844394
vn 0.522647 0.117643 0.844394
vn 0.522647 0.117643 0.844394
vn -0.698267 0.705686 0.120127
vn -0.698267 0.705686 0.120127
vn -0.698267 0.705686 0.120127
vn -0.853419 0.18263 0.488183
vn -0.853419 0.18263 0.488183
vn -0.853419 0.18263 0.488183
vn 0.987648 0.119803 0.100989
vn 0.987648 0.119803 0.100989
vn 0.987648 0.119803 0.100989
vn 0.764761 0.547948 0.338959
vn 0.764761 0.547948 0.338959
vn 0.764761 0.547948 0.338959
vn 0.800317 0.253456 0.543371
vn 0.800317 0.253456 0.543371
vn 0.800317 0.253456 0.543371
vn 0.802818 0.100871 0.587629
vn 0.802818 0.100871 0.587629
vn 0.802818 0.100871 0.587629
vn 0.366443 0.0799681 0.926998
vn 0.366443 0.0799681 0.926998
vn 0.366443 0.0799681 0.926998
vn 0.58378 0.757738 0.291604
vn 0.58378 0.757738 0.291604
vn 0.58378 0.757738 0.291604
vn -0.0156193 0.859856 -0.510298
vn -0.0156193 0.859856 -0.510298
vn -0.0156193 0.859856 -0.510298
vn -0.0592528 0.779546 0.623536
vn -0.0592528 0.779546 0.623536
vn -0.0592528 0.779546 0.623536
vn 0.786241 0.496932 0.367266
vn 0.786241 0.496932 0.367266
vn 0.786241 0.496932 0.367266
vn -0.465629 0.795013 0.388773
vn -0.465629 0.795013 0.388773
vn -0.465629 0.795013 0.388773
vn -0.329255 0.78906 0.518628
vn -0.329255 0.78906 0.518628
vn -0.329255 0.78906 0.518628
vn -0.748851 0.516841 0.414846
vn -0.748851 0.516841 0.414846
vn -0.748851 0.516841 0.414846
vn -0.994894 -0.0846996 -0.0548785
vn -0.994894 -0.0846996 -0.0548785
vn -0.994894 -0.0846996 -0.0548785
vn -0.965965 0.00687249 0.258581
vn -0.965965 0.00687249 0.258581
vn -0.965965 0.00687249 0.258581
vn -0.590053 0.804904 -0.0629916
vn -0.590053 0.804904 -0.0629916
vn -0.590053 0.804904 -0.0629916
vn 0.743519 0.661145 -0.100332
vn 0.743519 0.661145 -0.100332
vn 0.743519 0.661145 -0.100332
vn -0.887124 -0.436445 0.150092
vn -0.887124 -0.436445 0.150092
vn -0.887124 -0.436445 0.150092
vn -0.696572 0.612974 0.372893
vn -0.696572 0.612974 0.372893
vn -0.696572 0.612974 0.372893
vn -0.654729 0.70491 0.272823
vn -0.654729 0.70491 0.272823
vn -0.654729 0.70491 0.272823
vn -0.850247 0.495319 0.178155
vn -0.850247 0.495319 0.178155
vn -0.850247 0.495319 0.178155
vn 0.914091 0.111868 0.389774
vn 0.914091 0.111868 0.389774
vn 0.914091 0.111868 0.389774
vn -0.813385 -0.100786 -0.572928
vn -0.813385 -0.100786 -0.572928
vn -0.813385 -0.100786 -0.572928
vn -0.0410321 0.993942 0.101956
vn -0.0410321 0.993942 0.101956
vn -0.0410321 0.993942 0.101956
vn 0.696726 0.708857 -0.109975
vn 0.696726 0.708857 -0.109975
vn 0.696726 0.708857 -0.109975
vn 0.456195 0.880345 0.129916
vn 0.456195 0.880345 0.129916
vn 0.456195 0.880345 0.129916
vn -0.408069 0.765452 0.497557
vn -0.408069 0.765452 0.497557
vn -0.408069 0.765452 0.497557
vn -0.338254 -0.0201761 0.940838
vn -0.338254 -0.0201761 0.940838
vn -0.338254 -0.0201761 0.940838
vn -0.663332 -0.484235 0.570532
vn -0.663332 -0.484235 0.570532
vn -0.663332 -0.484235 0.570532
vn -0.664481 0.419392 0.618527
vn -0.664481 0.419392 0.618527
vn -0.664481 0.419392 0.618527
vn -0.893061 0.0811468 -0.442558
vn -0.893061 0.0811468 -0.442558
vn -0.893061 0.0811468 -0.442558
vn -0.990355 0.017432 -0.137456
vn -0.990355 0.017432 -0.137456
vn -0.990355 0.017432 -0.137456
vn 0.738224 0.668447 -0.0905735
vn 0.738224 0.668447 -0.0905735
vn 0.738224 0.668447 -0.0905735
vn 0.998395 0.0148823 -0.0546516
vn 0.998395 0.0148823 -0.0546516
vn 0.998395 0.0148823 -0.0546516
vn 0.518302 -0.727667 -0.449293
vn 0.518302 -0.727667 -0.449293
vn 0.518302 -0.727667 -0.449293
vn -0.700015 0.307278 0.644639
vn -0.700015 0.307278 0.644639
vn -0.700015 0.307278 0.644639
vn -0.228322 0.0812456 0.97019
vn -0.228322 0.0812456 0.97019
vn -0.228322 0.0812456 0.97019
vn -0.979761 0.171252 -0.103641
vn -0.979761 0.171252 -0.103641
vn -0.979761 0.171252 -0.103641
vn -0.976345 -0.215605 -0.0162952
vn -0.976345 -0.215605 -0.0162952
vn -0.976345 -0.215605 -0.0162952
vn 0.526629 0.675218 0.516471
vn 0.526629 0.675218 0.516471
vn 0.526629 0.675218 0.516471
vn -0.530583 0.818415 -0.220632
vn -0.530583 0.818415 -0.220632
vn -0.530583 0.818415 -0.220632
vn -0.653057 0.292808 0.698413
vn -0.653057 0.292808 0.698413
vn -0.653057 0.292808 0.698413
vn -0.503834 0.162528 0.848372
vn -0.503834 0.162528 0.848372
vn -0.503834 0.162528 0.848372
vn -0.371852 0.703943 0.605136
vn -0.371852 0.703943 0.605136
vn -0.371852 0.703943 0.605136
vn -0.291915 0.210639 0.932961
vn -0.291915 0.210639 0.932961
vn -0.291915 0.210639 0.932961
vn -0.976345 0.215648 0.0157151
vn -0.976345 0.215648 0.0157151
vn -0.976345 0.215648 0.0157151
vn -0.424048 0.532228 0.732746
vn -0.424048 0.532228 0.732746
vn -0.424048 0.532228 0.732746
vn -0.688224 0.443442 0.574201
vn -0.688224 0.443442 0.574201
vn -0.688224 0.443442 0.574201
vn -0.800519 0.570917 0.182272
vn -0.800519 0.570917 0.182272
vn -0.800519 0.570917 0.182272
vn -0.739453 0.379291 0.556191
vn -0.739453 0.379291 0.556191
vn -0.739453 0.379291 0.556191
vn 0.581724 0.804654 0.118866
vn 0.581724 0.804654 0.118866
vn 0.581724 0.804654 0.118866
vn 0.955797 0.281213 0.0858533
vn 0.955797 0.281213 0.0858533
vn 0.955797 0.281213 0.0858533
vn 0.912739 0.400216 0.082066
vn 0.912739 0.400216 0.082066
vn 0.912739 0.400216 0.082066
vn -0.975447 -0.0670996 0.209761
vn -0.975447 -0.0670996 0.209761
vn -0.975447 -0.0670996 0.209761
vn -0.303118 0.930971 -0.2035
vn -0.303118 0.930971 -0.2035
vn -0.303118 0.930971 -0.2035
vn -0.607089 0.702842 -0.370751
vn -0.607089 0.702842 -0.370751
vn -0.607089 0.702842 -0.370751
vn -0.911113 -0.101568 -0.399445
vn -0.911113 -0.101568 -0.399445
vn -0.911113 -0.101568 -0.399445
vn -0.292134 0.812853 0.503913
vn -0.292134 0.812853 0.503913
vn -0.292134 0.812853 0.503913
vn -0.18247 0.137895 -0.973494
vn -0.18247 0.137895 -0.973494
vn -0.18247 0.137895 -0.973494
vn 0.72557 0.0756807 0.683974
vn 0.72557 0.0756807 0.683974
vn 0.72557 0.0756807 0.683974
vn 0.618343 0.700982 0.355353
vn 0.618343 0.700982 0.355353
vn 0.618343 0.700982 0.355353
vn -0.614227 -0.057182 0.787055
vn -0.614227 -0.057182 0.787055
vn -0.614227 -0.057182 0.787055
vn -0.949474 0.209521 0.233666
vn -0.949474 0.209521 0.233666
vn -0.949474 0.209521 0.233666
vn 0.00827333 0.997577 0.0690731
vn 0.00827333 0.997577 0.0690731
vn 0.00827333 0.997577 0.0690731
vn -0.99222 0.118587 -0.03791
vn -0.99222 0.118587 -0.03791
vn -0.99222 0.118587 -0.03791
vn -0.600594 0.772519 -0.20616
vn -0.600594 0.772519 -0.20616
vn -0.600594 0.772519 -0.20616
vn -0.880177 0.469106 0.0723047
vn -0.880177 0.469106 0.0723047
vn -0.880177 0.469106 0.0723047
vn -0.399896 0.162856 0.901976
vn -0.399896 0.162856 0.901976
vn -0.399896 0.162856 0.901976
vn -0.958188 -0.0140099 -0.285795
vn -0.958188 -0.0140099 -0.285795
vn -0.958188 -0.0140099 -0.285795
vn 0.782116 0.403949 0.474467
vn 0.782116 0.403949 0.474467
vn 0.782116 0.403949 0.474467
vn -0.848634 0.515729 0.117661
vn -0.848634 0.515729 0.117661
vn -0.848634 0.515729 0.117661
vn -0.972329 0.1639 -0.166471
vn -0.972329 0.1639 -0.166471
vn -0.972329 0.1639 -0.166471
vn -0.980344 0.0630351 -0.186953
vn -0.980344 0.0630351 -0.186953
vn -0.980344 0.0630351 -0.186953
vn -0.32201 0.880926 0.346813
vn -0.32201 0.880926 0.346813
vn -0.32201 0.880926 0.346813
vn -0.532197 0.80664 0.257095
vn -0.532197 0.80664 0.257095
vn -0.532197 0.80664 0.257095
vn -0.179303 0.980459 0.0809341
vn -0.179303 0.980459 0.0809341
vn -0.179303 0.980459 0.0809341
vn -0.289135 0.773048 0.564622
vn -0.289135 0.773048 0.564622
vn -0.289135 0.773048 0.564622
vn -0.74583 0.546337 -0.381123
vn -0.74583 0.546337 -0.381123
vn -0.74583 0.546337 -0.381123
vn -0.634333 -0.462843 0.619191
vn -0.634333 -0.462843 0.619191
vn -0.634333 -0.462843 0.619191
vn -0.88554 0.464023 0.0224012
vn -0.88554 0.464023 0.0224012
vn -0.88554 0.464023 0.0224012
vn 0.384161 0.857566 0.342054
vn 0.384161 0.857566 0.342054
vn 0.384161 0.857566 0.342054
vn -0.384831 0.49963 0.776064
vn -0.384831 0.49963 0.776064
vn -0.384831 0.49963 0.776064
vn -0.949181 0.302205 0.0879085
vn -0.949181 0.302205 0.0879085
vn -0.949181 0.302205 0.0879085
vn -0.261588 0.782569 0.56494
vn -0.261588 0.782569 0.56494
vn -0.261588 0.782569 0.56494
vn -0.317631 0.618456 -0.718765
vn -0.317631 0.618456 -0.718765
vn -0.317631 0.618456 -0.718765
vn -0.814003 -0.100169 -0.572158
vn -0.814003 -0.100169 -0.572158
vn -0.814003 -0.100169 -0.572158
vn 0.46682 0.615031 0.635466
vn 0.46682 0.615031 0.635466
vn 0.46682 0.615031 0.635466
vn 0.664712 -0.543628 0.512471
vn 0.664712 -0.543628 0.512471
vn 0.664712 -0.543628 0.512471
vn 0.6385 0.726306 0.254553
vn 0.6385 0.726306 0.254553
vn 0.6385 0.726306 0.254553
vn -0.791662 0.603996 -0.0919834
vn -0.791662 0.603996 -0.0919834
vn -0.791662 0.603996 -0.0919834
vn 0.348289 0.868502 0.352702
vn 0.348289 0.868502 0.352702
vn 0.348289 0.868502 0.352702
vn -0.0919198 0.88622 0.454055
vn -0.0919198 0.88622 0.454055
vn -0.0919198 0.88622 0.454055
vn -0.792906 0.3456 -0.501858
vn -0.792906 0.3456 -0.501858
vn -0.792906 0.3456 -0.501858
vn -0.851255 0.145051 0.504307
vn -0.851255 0.145051 0.504307
vn -0.851255 0.145051 0.504307
vn -0.65703 0.667697 0.34999
vn -0.65703 0.667697 0.34999
vn -0.65703 0.667697 0.34999
vn -0.898502 -0.213884 0.383338
vn -0.898502 -0.213884 0.383338
vn -0.898502 -0.213884 0.383338
vn -0.913113 -0.407643 0.00718686
vn -0.913113 -0.407643 0.00718686
vn -0.913113 -0.407643 0.00718686
vn 0.853362 0.500282 -0.146603
vn 0.853362 0.500282 -0.146603
vn 0.853362 0.500282 -0.146603
vn -0.476335 0.80191 0.360618
vn -0.476335 0.80191 0.360618
vn -0.476335 0.80191 0.360618
vn -0.949491 0.210739 0.232498
vn -0.949491 0.210739 0.232498
vn -0.949491 0.210739 0.232498
vn -0.344419 0.671759 0.655832
vn -0.344419 0.671759 0.655832
vn -0.344419 0.671759 0.655832
vn -0.767485 0.636758 0.074198
vn -0.767485 0.636758 0.074198
vn -0.767485 0.636758 0.074198
vn -0.749661 0.649922 0.124943
vn -0.749661 0.649922 0.124943
vn -0.749661 0.649922 0.124943
vn -0.15645 0.034162 0.987095
vn -0.15645 0.034162 0.987095
vn -0.15645 0.034162 0.987095
vn -0.453808 -0.87092 0.188566
vn -0.453808 -0.87092 0.188566
vn -0.453808 -0.87092 0.188566
vn -0.640727 0.294978 0.708842
vn -0.640727 0.294978 0.708842
vn -0.640727 0.294978 0.708842
vn -0.828291 0.181386 0.530126
vn -0.828291 0.181386 0.530126
vn -0.828291 0.181386 0.530126
vn -0.823114 0.440533 -0.35835
vn -0.823114 0.440533 -0.35835
vn -0.823114 0.440533 -0.35835
vn 0.642121 0.665392 0.380702
vn 0.642121 0.665392 0.380702
vn 0.642121 0.665392 0.380702
vn -0.469212 0.0487652 0.881738
vn -0.469212 0.0487652 0.881738
vn -0.469212 0.0487652 0.881738
vn -0.944489 0.151729 0.291408
vn -0.944489 0.151729 0.291408
vn -0.944489 0.151729 0.291408
vn -0.920494 0.0879202 -0.380738
vn -0.920494 0.0879202 -0.380738
vn -0.920494 0.0879202 -0.380738
vn -0.575076 0.595052 0.561427
vn -0.575076 0.595052 0.561427
vn -0.575076 0.595052 0.561427
vn -0.672518 0.585548 0.452607
vn -0.672518 0.585548 0.452607
vn -0.672518 0.585548 0.452607
vn 0.34052 0.156612 0.927102
vn 0.34052 0.156612 0.927102
vn 0.34052 0.156612 0.927102
vn 0.13914 0.305 0.942133
vn 0.13914 0.305 0.942133
vn 0.13914 0.305 0.942133
vn 0.692566 -0.190291 0.695803
vn 0.692566 -0.190291 0.695803
vn 0.692566 -0.190291 0.695803
vn 0.113663 -0.0817141 0.990153
vn 0.113663 -0.0817141 0.990153
vn 0.113663 -0.0817141 0.990153
vn -0.419188 -0.901355 -0.10882
vn -0.419188 -0.901355 -0.10882
vn -0.419188 -0.901355 -0.10882
vn -0.999186 0.0379685 -0.0136144
vn -0.999186 0.0379685 -0.0136144
vn -0.999186 0.0379685 -0.0136144
vn 0.734849 -0.634531 0.239514
vn 0.734849 -0.634531 0.239514
vn 0.734849 -0.634531 0.239514
vn 0.356507 -0.918821 -0.169323
vn 0.356507 -0.918821 -0.169323
vn 0.356507 -0.918821 -0.169323
vn -0.345146 -0.791351 0.504617
vn -0.345146 -0.791351 0.504617
vn -0.345146 -0.791351 0.504617
vn -0.448384 -0.758765 -0.47247
vn -0.448384 -0.758765 -0.47247
vn -0.448384 -0.758765 -0.47247
vn 0.26251 -0.64764 0.715297
vn 0.26251 -0.64764 0.715297
vn 0.26251 -0.64764 0.715297
vn 0.0257678 0.983038 0.181585
vn 0.0257678 0.983038 0.181585
vn 0.0257678 0.983038 0.181585
vn 0.939442 -0.323169 -0.114069
vn 0.939442 -0.323169 -0.114069
vn 0.939442 -0.323169 -0.114069
vn 0.112461 -0.980166 -0.163181
vn 0.112461 -0.980166 -0.163181
vn 0.112461 -0.980166 -0.163181
vn -0.309417 -0.950912 -0.00525046
vn -0.309417 -0.950912 -0.00525046
vn -0.309417 -0.950912 -0.00525046
vn -0.417881 -0.903028 -0.099582
vn -0.417881 -0.903028 -0.099582
vn -0.417881 -0.903028 -0.099582
vn -0.960031 -0.219556 -0.173598
vn -0.960031 -0.219556 -0.173598
vn -0.960031 -0.219556 -0.173598
vn -0.0897182 -0.336754 0.937309
vn -0.0897182 -0.336754 0.937309
vn -0.0897182 -0.336754 0.937309
vn -0.537194 0.663402 0.520884
vn -0.537194 0.663402 0.520884
vn -0.537194 0.663402 0.520884
vn 0.953646 -0.00280451 0.300916
vn 0.953646 -0.00280451 0.300916
vn 0.953646 -0.00280451 0.300916
vn 0.250034 -0.968208 0.00754428
vn 0.250034 -0.968208 0.00754428
vn 0.250034 -0.968208 0.00754428
vn -0.806587 -0.590246 -0.0320539
vn -0.806587 -0.590246 -0.0320539
vn -0.806587 -0.590246 -0.0320539
vn -0.785928 -0.522326 0.330895
vn -0.785928 -0.522326 0.330895
vn -0.785928 -0.522326 0.330895
vn 0.0923129 -0.796962 0.596933
vn 0.0923129 -0.796962 0.596933
vn 0.0923129 -0.796962 0.596933
vn -0.440329 -0.84619 -0.300121
vn -0.440329 -0.84619 -0.300121
vn -0.440329 -0.84619 -0.300121
vn 0.633181 -0.759508 -0.149093
vn 0.633181 -0.759508 -0.149093
vn 0.633181 -0.759508 -0.149093
vn 0.131927 -0.986189 0.100132
vn 0.131927 -0.986189 0.100132
vn 0.131927 -0.986189 0.100132
vn -0.327261 -0.162927 -0.930782
vn -0.327261 -0.162927 -0.930782
vn -0.327261 -0.162927 -0.930782
vn 0.984571 -0.137065 -0.108782
vn 0.984571 -0.137065 -0.108782
vn 0.984571 -0.137065 -0.108782
vn 0.742783 -0.570131 -0.351033
vn 0.742783 -0.570131 -0.351033
vn 0.742783 -0.570131 -0.351033
vn -0.768409 -0.52654 -0.363736
vn -0.768409 -0.52654 -0.363736
vn -0.768409 -0.52654 -0.363736
vn -0.6676 -0.507777 0.544493
vn -0.6676 -0.507777 0.544493
vn -0.6676 -0.507777 0.544493
vn 0.0135095 -0.425213 0.904992
vn 0.0135095 -0.425213 0.904992
vn 0.0135095 -0.425213 0.904992
vn -0.818171 -0.0234332 0.574497
vn -0.818171 -0.0234332 0.574497
vn -0.818171 -0.0234332 0.574497
vn 0.376266 -0.904861 -0.199126
vn 0.376266 -0.904861 -0.199126
vn 0.376266 -0.904861 -0.199126
vn -0.296104 -0.784805 -0.54443
vn -0.296104 -0.784805 -0.54443
vn -0.296104 -0.784805 -0.54443
vn -0.377307 -0.882837 0.279712
vn -0.377307 -0.882837 0.279712
vn -0.377307 -0.882837 0.279712
vn 0.868377 -0.494445 0.0380318
vn 0.868377 -0.494445 0.0380318
vn 0.868377 -0.494445 0.0380318
vn 0.960458 -0.248147 0.12627
vn 0.960458 -0.248147 0.12627
vn 0.960458 -0.248147 0.12627
vn 0.893324 -0.440556 0.088785
vn 0.893324 -0.440556 0.088785
vn 0.893324 -0.440556 0.088785
vn -0.787055 -0.614179 0.0576987
vn -0.787055 -0.614179 0.0576987
vn -0.787055 -0.614179 0.0576987
vn 0.688774 -0.71371 -0.127314
vn 0.688774 -0.71371 -0.127314
vn 0.688774 -0.71371 -0.127314
vn 0.722039 -0.63206 -0.281354
vn 0.722039 -0.63206 -0.281354
vn 0.722039 -0.63206 -0.281354
vn -0.170337 0.733046 0.658505
vn -0.170337 0.733046 0.658505
vn -0.170337 0.733046 0.658505
vn 0.730226 -0.650624 -0.208467
vn 0.730226 -0.650624 -0.208467
vn 0.730226 -0.650624 -0.208467
vn 0.12859 -0.691698 0.710647
vn 0.12859 -0.691698 0.710647
vn 0.12859 -0.691698 0.710647
vn 0.742362 -0.669054 0.0355664
vn 0.742362 -0.669054 0.0355664
vn 0.742362 -0.669054 0.0355664
vn 0.792659 -0.477053 -0.37962
vn 0.792659 -0.477053 -0.37962
vn 0.792659 -0.477053 -0.37962
vn -0.625308 -0.126813 0.770006
vn -0.625308 -0.126813 0.770006
vn -0.625308 -0.126813 0.770006
vn -0.237355 0.870167 0.431825
vn -0.237355 0.870167 0.431825
vn -0.237355 0.870167 0.431825
vn -0.346774 -0.784897 0.513503
vn -0.346774 -0.784897 0.513503
vn -0.346774 -0.784897 0.513503
vn 0.533188 0.567545 0.627378
vn 0.533188 0.567545 0.627378
vn 0.533188 0.567545 0.627378
vn -0.293657 -0.81324 0.5024
vn -0.293657 -0.81324 0.5024
vn -0.293657 -0.81324 0.5024
vn 0.62279 -0.767142 -0.153706
vn 0.62279 -0.767142 -0.153706
vn 0.62279 -0.767142 -0.153706
vn -0.748916 -0.561537 0.351853
vn -0.748916 -0.561537 0.351853
vn -0.748916 -0.561537 0.351853
vn 0.212801 0.955507 -0.20426
vn 0.212801 0.955507 -0.20426
vn 0.212801 0.955507 -0.20426
vn 0.439521 -0.885043 -0.153361
vn 0.439521 -0.885043 -0.153361
vn 0.439521 -0.885043 -0.153361
vn -0.577692 -0.812977 -0.0730799
vn -0.577692 -0.812977 -0.0730799
vn -0.577692 -0.812977 -0.0730799
vn 0.717368 -0.595838 0.361054
vn 0.717368 -0.595838 0.361054
vn 0.717368 -0.595838 0.361054
vn -0.812077 -0.508293 -0.286651
vn -0.812077 -0.508293 -0.286651
vn -0.812077 -0.508293 -0.286651
vn 0.846122 -0.532595 0.0205244
vn 0.846122 -0.532595 0.0205244
vn 0.846122 -0.532595 0.0205244
vn 0.349271 -0.933668 -0.0792017
vn 0.349271 -0.933668 -0.0792017
vn 0.349271 -0.933668 -0.0792017
vn 0.937439 -0.27736 -0.210426
vn 0.937439 -0.27736 -0.210426
vn 0.937439 -0.27736 -0.210426
vn 0.99147 -0.115492 -0.0604052
vn 0.99147 -0.115492 -0.0604052
vn 0.99147 -0.115492 -0.0604052
vn -0.582894 -0.54562 -0.602107
vn -0.582894 -0.54562 -0.602107
vn -0.582894 -0.54562 -0.602107
vn -0.832541 -0.502726 -0.232684
vn -0.832541 -0.502726 -0.232684
vn -0.832541 -0.502726 -0.232684
vn -0.949652 -0.299411 -0.0922698
vn -0.949652 -0.299411 -0.0922698
vn -0.949652 -0.299411 -0.0922698
vn 0.0153855 0.981343 0.191648
vn 0.0153855 0.981343 0.191648
vn 0.0153855 0.981343 0.191648
vn -0.881156 0.334784 0.333891
vn -0.881156 0.334784 0.333891
vn -0.881156 0.334784 0.333891
vn 0.979627 0.0923478 0.178331
vn 0.979627 0.0923478 0.178331
vn 0.979627 0.0923478 0.178331
vn -0.325623 -0.137924 0.935386
vn -0.325623 -0.137924 0.935386
vn -0.325623 -0.137924 0.935386
vn 0.00873393 0.12209 0.992481
vn 0.00873393 0.12209 0.992481
vn 0.00873393 0.12209 0.992481
vn -0.301377 -0.238143 0.923288
vn -0.301377 -0.238143 0.923288
vn -0.301377 -0.238143 0.923288
vn 0.723295 0.0602858 0.687902
vn 0.723295 0.0602858 0.687902
vn 0.723295 0.0602858 0.687902
vn 0.301744 -0.215762 0.928654
vn 0.301744 -0.215762 0.928654
vn 0.301744 -0.215762 0.928654
vn -0.698248 -0.711765 0.0764227
vn -0.698248 -0.711765 0.0764227
vn -0.698248 -0.711765 0.0764227
vn -0.522911 -0.652701 0.548221
vn -0.522911 -0.652701 0.548221
vn -0.522911 -0.652701 0.548221
vn 0.845432 -0.287631 0.450016
vn 0.845432 -0.287631 0.450016
vn 0.845432 -0.287631 0.450016
vn 0.725928 -0.198737 0.658432
vn 0.725928 -0.198737 0.658432
vn 0.725928 -0.198737 0.658432
vn -0.972647 -0.139757 0.185544
vn -0.972647 -0.139757 0.185544
vn -0.972647 -0.139757 0.185544
vn -0.974272 -0.202342 0.0992537
vn -0.974272 -0.202342 0.0992537
vn -0.974272 -0.202342 0.0992537
vn -0.79156 -0.578855 0.195857
vn -0.79156 -0.578855 0.195857
vn -0.79156 -0.578855 0.195857
vn -0.822831 -0.487869 0.291433
vn -0.822831 -0.487869 0.291433
vn -0.822831 -0.487869 0.291433
vn 0.77051 -0.627041 0.114601
vn 0.77051 -0.627041 0.114601
vn 0.77051 -0.627041 0.114601
vn 0.162707 -0.936271 -0.311326
vn 0.162707 -0.936271 -0.311326
vn 0.162707 -0.936271 -0.311326
vn -0.984521 -0.17433 -0.0181217
vn -0.984521 -0.17433 -0.0181217
vn -0.984521 -0.17433 -0.0181217
vn -0.224091 -0.730522 0.645074
vn -0.224091 -0.730522 0.645074
vn -0.224091 -0.730522 0.645074
vn -0.704257 -0.708108 0.0510382
vn -0.704257 -0.708108 0.0510382
vn -0.704257 -0.708108 0.0510382
vn 0.365846 -0.878048 -0.308525
vn 0.365846 -0.878048 -0.308525
vn 0.365846 -0.878048 -0.308525
vn 0.280694 -0.954908 -0.096752
vn 0.280694 -0.954908 -0.096752
vn 0.280694 -0.954908 -0.096752
vn -0.548539 -0.646872 -0.529775
vn -0.548539 -0.646872 -0.529775
vn -0.548539 -0.646872 -0.529775
vn -0.284298 -0.958733 -0.0024763
vn -0.284298 -0.958733 -0.0024763
vn -0.284298 -0.958733 -0.0024763
vn 0.481341 0.802307 0.353008
vn 0.481341 0.802307 0.353008
vn 0.481341 0.802307 0.353008
vn 0.835916 -0.42695 0.344903
vn 0.835916 -0.42695 0.344903
vn 0.835916 -0.42695 0.344903
vn -0.467858 -0.27736 0.839155
vn -0.467858 -0.27736 0.839155
vn -0.467858 -0.27736 0.839155
vn -0.2092 -0.593141 -0.777444
vn -0.2092 -0.593141 -0.777444
vn -0.2092 -0.593141 -0.777444
vn -0.388181 -0.784401 0.483766
vn -0.388181 -0.784401 0.483766
vn -0.388181 -0.784401 0.483766
vn 0.868354 -0.489781 -0.077953
vn 0.868354 -0.489781 -0.077953
vn 0.868354 -0.489781 -0.077953
vn 0.732192 -0.652122 0.196553
vn 0.732192 -0.652122 0.196553
vn 0.732192 -0.652122 0.196553
vn 0.871232 0.384713 0.304879
vn 0.871232 0.384713 0.304879
vn 0.871232 0.384713 0.304879
vn 0.989323 0.00224221 0.145724
vn 0.989323 0.00224221 0.145724
vn 0.989323 0.00224221 0.145724
vn 0.987511 -0.0447263 0.151067
vn 0.987511 -0.0447263 0.151067
vn 0.987511 -0.0447263 0.151067
vn -0.776954 -0.594686 -0.20662
vn -0.776954 -0.594686 -0.20662
vn -0.776954 -0.594686 -0.20662
vn -0.782106 -0.622957 0.0153052
vn -0.782106 -0.622957 0.0153052
vn -0.782106 -0.622957 0.0153052
vn 0.98376 -0.125138 -0.128673
vn 0.98376 -0.125138 -0.128673
vn 0.98376 -0.125138 -0.128673
vn -0.306768 0.940959 -0.14314
vn -0.306768 0.940959 -0.14314
vn -0.306768 0.940959 -0.14314
vn -0.930427 -0.358459 0.0762457
vn -0.930427 -0.358459 0.0762457
vn -0.930427 -0.358459 0.0762457
vn -0.428425 -0.718145 0.548379
vn -0.428425 -0.718145 0.548379
vn -0.428425 -0.718145 0.548379
vn -0.096574 -0.979676 -0.175806
vn -0.096574 -0.979676 -0.175806
vn -0.096574 -0.979676 -0.175806
vn -0.945318 -0.187202 -0.267077
vn -0.945318 -0.187202 -0.267077
vn -0.945318 -0.187202 -0.267077
vn 0.0330371 -0.999146 -0.0248045
vn 0.0330371 -0.999146 -0.0248045
vn 0.0330371 -0.999146 -0.0248045
vn -0.792593 -0.587818 -0.162072
vn -0.792593 -0.587818 -0.162072
vn -0.792593 -0.587818 -0.162072
vn -0.577706 -0.74223 -0.339632
vn -0.577706 -0.74223 -0.339632
vn -0.577706 -0.74223 -0.339632
vn -0.119432 -0.200198 0.972449
vn -0.119432 -0.200198 0.972449
vn -0.119432 -0.200198 0.972449
vn 0.784651 -0.487304 -0.383221
vn 0.784651 -0.487304 -0.383221
vn 0.784651 -0.487304 -0.383221
vn -0.57749 -0.61261 -0.539642
vn -0.57749 -0.61261 -0.539642
vn -0.57749 -0.61261 -0.539642
vn 0.0437059 -0.998724 0.0252904
vn 0.0437059 -0.998724 0.0252904
vn 0.0437059 -0.998724 0.0252904
vn 0.0175285 -0.858152 -0.513096
vn 0.0175285 -0.858152 -0.513096
vn 0.0175285 -0.858152 -0.513096
vn 0.822628 -0.556667 0.115782
vn 0.822628 -0.556667 0.115782
vn 0.822628 -0.556667 0.115782
vn 0.370554 -0.813781 -0.447716
vn 0.370554 -0.813781 -0.447716
vn 0.370554 -0.813781 -0.447716
vn -0.583136 0.811066 0.0460854
vn -0.583136 0.811066 0.0460854
vn -0.583136 0.811066 0.0460854
vn 0.861914 -0.49526 0.108729
vn 0.861914 -0.49526 0.108729
vn 0.861914 -0.49526 0.108729
vn -0.250317 -0.773801 -0.581871
vn -0.250317 -0.773801 -0.581871
vn -0.250317 -0.773801 -0.581871
vn -0.318752 -0.891416 -0.32214
vn -0.318752 -0.891416 -0.32214
vn -0.318752 -0.891416 -0.32214
vn -0.262081 -0.74584 -0.612402
vn -0.262081 -0.74584 -0.612402
vn -0.262081 -0.74584 -0.612402
vn -0.869265 -0.482996 0.105321
vn -0.869265 -0.482996 0.105321
vn -0.869265 -0.482996 0.105321
vn -0.903025 -0.412342 -0.120499
vn -0.903025 -0.412342 -0.120499
vn -0.903025 -0.412342 -0.120499
vn -0.195642 0.404448 0.89339
vn -0.195642 0.404448 0.89339
vn -0.195642 0.404448 0.89339
vn -0.812989 -0.444173 -0.37651
vn -0.812989 -0.444173 -0.37651
vn -0.812989 -0.444173 -0.37651
vn -0.126549 0.846115 0.517759
vn -0.126549 0.846115 0.517759
vn -0.126549 0.846115 0.517759
vn 0.0400164 0.973054 0.227077
vn 0.0400164 0.973054 0.227077
vn 0.0400164 0.973054 0.227077
vn 0.844277 -0.279834 0.457044
vn 0.844277 -0.279834 0.457044
vn 0.844277 -0.279834 0.457044
vn -0.810467 0.362431 0.460203
vn -0.810467 0.362431 0.460203
vn -0.810467 0.362431 0.460203
vn 0 0 -1
vn 0 0 -1
vn 0 0 -1
vn 0 0 -1
vn 0 0 -1
vn 0 0 -1
vn 0 0 -1
vn 0 0 -1
vn 0 0 -1
vn 0 0 -1
vn 0 0 -1
vn 0 0 -1
vn 0 0 -1
vn 0 0 -1
vn 0 0 -1
vn -0 0 -1
vn -0 0 -1
vn -0 0 -1
vn -0 0 -1
vn -0 0 -1
vn -0 0 -1
vn -0 0 -1
vn -0 0 -1
vn -0 0 -1
vn -0 0 -1
vn -0 0 -1
vn -0 0 -1
vn -0 0 -1
vn -0 0 -1
vn -0 0 -1
vn 0 0 -1
vn 0 0 -1
vn 0 0 -1
vn 0 0 -1
vn 0 0 -1
vn 0 0 -1
vn 0 0 -1
vn 0 0 -1
vn 0 0 -1
vn 0 0 -1
vn 0 0 -1
vn 0 0 -1
vn 0 0 -1
vn 0 0 -1
vn 0 0 -1
vn 0 0 -1
vn 0 0 -1
vn 0 0 -1
vn -0 0 -1
vn -0 0 -1
vn -0 0 -1
vn 0 0 -1
vn 0 0 -1
vn 0 0 -1
vn -0 0 -1
vn -0 0 -1
vn -0 0 -1
vn -0 0 -1
vn -0 0 -1
vn -0 0 -1
vn 0 0 -1
vn 0 0 -1
vn 0 0 -1
vn -0 0 -1
vn -0 0 -1
vn -0 0 -1
vn 0 0 -1
vn 0 0 -1
vn 0 0 -1
vn 0 0 -1
vn 0 0 -1
vn 0 0 -1
vn 0 0 -1
vn 0 0 -1
vn 0 0 -1
vn 0 0 -1
vn 0 0 -1
vn 0 0 -1
vn 0 0 -1
vn 0 0 -1
vn 0 0 -1
vn 0 0 -1
vn 0 0 -1
vn 0 0 -1
vn 0 0 -1
vn 0 0 -1
vn 0 0 -1
vn 0 0 -1
vn -0 0 -1
vn 0 0 -1
vn 0 0 -1
vn -0 0 -1
vn -0 0 -1
vn -0 0 -1
vn 0 0 -1
vn -0 0 -1
vn -0 0 -1
vn -0 0 -1
vn 0 0 -1
vn -0 0 -1
vn -0 0 -1
vn -0 0 -1
vn -0 0 -1
vn -0 0 -1
vn -0 0 -1
vn -0 0 -1
vn -0 0 -1
vn -0 0 -1
vn -0 0 -1
vn -0 0 -1
vn -0 0 -1
vn -0 0 -1
vn -0 0 -1
vn -0 0 -1
vn 0 0 -1
vn 0 0 -1
vn 0 0 -1
vn 0.68025 0.660139 -0.318554
vn 0.68025 0.660139 -0.318554
vn 0.68025 0.660139 -0.318554
vn 0.68025 0.660139 -0.318554
vn 0.68025 0.660139 -0.318554
vn 0.680249 0.660139 -0.318556
vn 0.895222 0.347991 -0.278353
vn 0.895222 0.347991 -0.278353
vn 0.895222 0.347991 -0.278353
vn 0.895222 0.347991 -0.278353
vn 0.895222 0.347991 -0.278353
vn 0.895223 0.347989 -0.27835
vn 0.396282 0.863067 -0.313171
vn 0.396282 0.863067 -0.313171
vn 0.396282 0.863067 -0.313171
vn 0.396282 0.863067 -0.313171
vn 0.396282 0.863067 -0.313171
vn 0.396282 0.863067 -0.313171
vn -0.977872 0.107036 -0.179751
vn -0.977872 0.107036 -0.179751
vn -0.977872 0.107036 -0.179751
vn -0.977872 0.107036 -0.179751
vn -0.977872 0.107036 -0.179751
vn -0.977872 0.107036 -0.17975
vn -0.40696 0.756733 -0.511604
vn -0.40696 0.756733 -0.511604
vn -0.40696 0.756733 -0.511604
vn -0.40696 0.756733 -0.511604
vn -0.40696 0.756733 -0.511604
vn -0.406959 0.756735 -0.511602
vn -0.334441 0.791311 -0.511836
vn -0.334441 0.791311 -0.511836
vn -0.334441 0.791311 -0.511836
vn -0.940334 0.213488 -0.264941
vn -0.940334 0.213488 -0.264941
vn -0.940334 0.213488 -0.264941
vn -0.940334 0.213488 -0.264941
vn -0.940334 0.213488 -0.264941
vn -0.940334 0.213488 -0.264942
vn 0.848409 0.0620687 -0.525689
vn 0.848409 0.0620687 -0.525689
vn 0.848409 0.0620687 -0.525689
vn 0.848409 0.0620687 -0.525689
vn 0.848409 0.0620687 -0.525689
vn 0.848409 0.0620709 -0.52569
vn 0.871229 0.116732 -0.476795
vn 0.871229 0.116732 -0.476795
vn 0.871229 0.116732 -0.476795
vn 0.710023 0.479959 -0.515273
vn 0.710023 0.479959 -0.515273
vn 0.710023 0.479959 -0.515273
vn -0.934052 0.165526 -0.316461
vn -0.934052 0.165526 -0.316461
vn -0.934052 0.165526 -0.316461
vn -0.546559 -0.837297 -0.014349
vn -0.546559 -0.837297 -0.014349
vn -0.546559 -0.837297 -0.014349
vn -0.546559 -0.837297 -0.014349
vn -0.546559 -0.837297 -0.014349
vn -0.546559 -0.837298 -0.0143491
vn -0.645059 -0.60362 0.468552
vn -0.645059 -0.60362 0.468552
vn -0.645059 -0.60362 0.468552
vn -0.645059 -0.60362 0.468552
vn -0.645059 -0.60362 0.468552
vn -0.645059 -0.60362 0.468552
vn -0.631433 -0.707186 0.318088
vn -0.631433 -0.707186 0.318088
vn -0.631433 -0.707186 0.318088
vn -0.631433 -0.707186 0.318088
vn -0.631433 -0.707186 0.318088
vn -0.631433 -0.707186 0.318088
vn 0.177497 -0.922591 0.342522
vn 0.177497 -0.922591 0.342522
vn 0.177497 -0.922591 0.342522
vn 0.0217507 -0.974447 -0.223562
vn 0.0217507 -0.974447 -0.223562
vn 0.0217507 -0.974447 -0.223562
vn -0.685507 -0.65789 -0.311866
vn -0.685507 -0.65789 -0.311866
vn -0.685507 -0.65789 -0.311866
vn -0.685507 -0.65789 -0.311866
vn -0.685507 -0.65789 -0.311866
vn -0.685507 -0.65789 -0.311866
vn -0.701419 0.695082 -0.157708
vn -0.701419 0.695082 -0.157708
vn -0.701419 0.695082 -0.157708
vn 0.96479 -0.252493 -0.0736724
vn 0.96479 -0.252493 -0.0736724
vn 0.96479 -0.252493 -0.0736724
vn -0.873134 0.0656247 0.483043
vn -0.873134 0.0656247 0.483043
vn -0.873134 0.0656247 0.483043
vn -0.873134 0.0656247 0.483043
vn -0.873134 0.0656247 0.483043
vn -0.873134 0.0656253 0.483043
vn 0.98059 -0.194486 -0.0248709
vn 0.98059 -0.194486 -0.0248709
vn 0.98059 -0.194486 -0.0248709
vn -0.706246 0.662654 0.249212
vn -0.706246 0.662654 0.249212
vn -0.706246 0.662654 0.249212
vn -0.706246 0.662654 0.249212
vn -0.706246 0.662654 0.249212
vn -0.706248 0.662654 0.249207
vn -0.355088 -0.898371 0.25854
vn -0.355088 -0.898371 0.25854
vn -0.355088 -0.898371 0.25854
vn -0.355084 -0.898359 0.258586
vn -0.355084 -0.898359 0.258586
vn -0.355084 -0.898359 0.258586
vn 0.191838 0.863821 -0.465845
vn 0.191838 0.863821 -0.465845
vn 0.191838 0.863821 -0.465845
vn 0.191838 0.863821 -0.465845
vn 0.191838 0.863821 -0.465845
vn 0.191836 0.86382 -0.465847
vn -0.540958 0.840078 0.0404234
vn -0.540958 0.840078 0.0404234
vn -0.540958 0.840078 0.0404234
vn -0.540958 0.840078 0.0404234
vn -0.540958 0.840078 0.0404234
vn -0.540959 0.840077 0.0404253
vn 0.966771 -0.215635 -0.137317
vn 0.966771 -0.215635 -0.137317
vn 0.966771 -0.215635 -0.137317
vn 0.966771 -0.215635 -0.137317
vn 0.966771 -0.215635 -0.137317
vn 0.966771 -0.215633 -0.13732
vn -0.095444 0.793636 -0.60086
vn -0.095444 0.793636 -0.60086
vn -0.095444 0.793636 -0.60086
vn -0.095444 0.793636 -0.60086
vn -0.095444 0.793636 -0.60086
vn -0.0954446 0.793636 -0.60086
vn 0.791136 -0.449655 -0.414625
vn 0.791136 -0.449655 -0.414625
vn 0.791136 -0.449655 -0.414625
vn 0.791136 -0.449655 -0.414625
vn 0.791136 -0.449655 -0.414625
vn 0.791136 -0.449655 -0.414625
vn 0.542003 -0.641638 -0.54271
vn 0.542003 -0.641638 -0.54271
vn 0.542003 -0.641638 -0.54271
vn 0.542003 -0.641638 -0.54271
vn 0.542003 -0.641638 -0.54271
vn 0.542002 -0.641639 -0.542709
vn -0.683368 -0.659001 -0.314207
vn -0.683368 -0.659001 -0.314207
vn -0.683368 -0.659001 -0.314207
vn -0.810541 -0.110319 -0.575199
vn -0.810541 -0.110319 -0.575199
vn -0.810541 -0.110319 -0.575199
vn 0.381529 -0.793836 0.473562
vn 0.381529 -0.793836 0.473562
vn 0.381529 -0.793836 0.473562
vn 0.381529 -0.793836 0.473562
vn 0.381529 -0.793836 0.473562
vn 0.381527 -0.793836 0.473563
vn 0.150627 -0.987875 -0.0376098
vn 0.150627 -0.987875 -0.0376098
vn 0.150627 -0.987875 -0.0376098
vn 0.150627 -0.987875 -0.0376098
vn 0.150627 -0.987875 -0.0376098
vn 0.150627 -0.987875 -0.0376097
vn 0.258971 0.0770153 -0.96281
vn 0.258971 0.0770153 -0.96281
vn 0.258971 0.0770153 -0.96281
vn -0.0813104 -0.02282 -0.996428
vn -0.0813104 -0.02282 -0.996428
vn -0.0813104 -0.02282 -0.996428
vn 0.0628978 -0.106989 -0.992269
vn 0.0628978 -0.106989 -0.992269
vn 0.0628978 -0.106989 -0.992269
vn 0.322965 -0.0804921 -0.942982
vn 0.322965 -0.0804921 -0.942982
vn 0.322965 -0.0804921 -0.942982
vn -0.568188 0.399101 -0.719639
vn -0.568188 0.399101 -0.719639
vn -0.568188 0.399101 -0.719639
vn 0.239171 0.799809 -0.550548
vn 0.239171 0.799809 -0.550548
vn 0.239171 0.799809 -0.550548
vn -0.0811523 -0.0228588 -0.99644
vn -0.0811523 -0.0228588 -0.99644
vn -0.0811523 -0.0228588 -0.99644
vn -0.0811494 -0.0228603 -0.99644
vn -0.0811523 -0.0228588 -0.99644
vn -0.0811523 -0.0228588 -0.99644

# Mesh '<STL_BINARY>' with 376 faces
g <STL_BINARY>
usemtl DefaultMaterial
f  1//1 2//2 3//3
f  4//4 5//5 6//6
f  7//7 8//8 9//9
f  10//10 11//11 12//12
f  13//13 14//14 15//15
f  16//16 17//17 18//18
f  19//19 20//20 21//21
f  22//22 23//23 24//24
f  25//25 26//26 27//27
f  28//28 29//29 30//30
f  31//31 32//32 33//33
f  34//34 35//35 36//36
f  37//37 38//38 39//39
f  40//40 41//41 42//42
f  43//43 44//44 45//45
f  46//46 47//47 48//48
f  49//49 50//50 51//51
f  52//52 53//53 54//54
f  55//55 56//56 57//57
f  58//58 59//59 60//60
f  61//61 62//62 63//63
f  64//64 65//65 66//66
f  67//67 68//68 69//69
f  70//70 71//71 72//72
f  73//73 74//74 75//75
f  76//76 77//77 78//78
f  79//79 80//80 81//81
f  82//82 83//83 84//84
f  85//85 86//86 87//87
f  88//88 89//89 90//90
f  91//91 92//92 93//93
f  94//94 95//95 96//96
f  97//97 98//98 99//99
f  100//100 101//101 102//102
f  103//103 104//104 105//105
f  106//106 107//107 108//108
f  109//109 110//110 111//111
f  112//112 113//113 114//114
f  115//115 116//116 117//117
f  118//118 119//119 120//120
f  121//121 122//122 123//123
f  124//124 125//125 126//126
f  127//127 128//128 129//129
f  130//130 131//131 132//132
f  133//133 134//134 135//135
f  136//136 137//137 138//138
f  139//139 140//140 141//141
f  142//142 143//143 144//144
f  145//145 146//146 147//147
f  148//148 149//149 150//150
f  151//151 152//152 153//153
f  154//154 155//155 156//156
f  157//157 158//158 159//159
f  160//160 161//161 162//162
f  163//163 164//164 165//165
f  166//166 167//167 168//168
f  169//169 170//170 171//171
f  172//172 173//173 174//174
f  175//175 176//176 177//177
f  178//178 179//179 180//180
f  181//181 182//182 183//183
f  184//184 185//185 186//186
f  187//187 188//188 189//189
f  190//190 191//191 192//192
f  193//193 194//194 195//195
f  196//196 197//197 198//198
f  199//199 200//200 201//201
f  202//202 203//203 204//204
f  205//205 206//206 207//207
f  208//208 209//209 210//210
f  211//211 212//212 213//213
f  214//214 215//215 216//216
f  217//217 218//218 219//219
f  220//220 221//221 222//222
f  223//223 224//224 225//225
f  226//226 227//227 228//228
f  229//229 230//230 231//231
f  232//232 233//233 234//234
f  235//235 236//236 237//237
f  238//238 239//239 240//240
f  241//241 242//242 243//243
f  244//244 245//245 246//246
f  247//247 248//248 249//249
f  250//250 251//251 252//252
f  253//253 254//254 255//255
f  256//256 257//257 258//258
f  259//259 260//260 261//261
f  262//262 263//263 264//264
f  265//265 266//266 267//267
f  268//268 269//269 270//270
f  271//271 272//272 273//273
f  274//274 275//275 276//276
f  277//277 278//278 279//279
f  280//280 281//281 282//282
f  283//283 284//284 285//285
f  286//286 287//287 288//288
f  289//289 290//290 291//291
f  292//292 293//293 294//294
f  295//295 296//296 297//297
f  298//298 299//299 300//300
f  301//301 302//302 303//303
f  304//304 305//305 306//306
f  307//307 308//308 309//309
f  310//310 311//311 312//312
f  313//313 314//314 315//315
f  316//316 317//317 318//318
f  319//319 320//320 321//321
f  322//322 323//323 324//324
f  325//325 326//326 327//327
f  328//328 329//329 330//330
f  331//331 332//332 333//333
f  334//334 335//335 336//336
f  337//337 338//338 339//339
f  340//340 341//341 342//342
f  343//343 344//344 345//345
f  346//346 347//347 348//348
f  349//349 350//350 351//351
f  352//352 353//353 354//354
f  355//355 356//356 357//357
f  358//358 359//359 360//360
f  361//361 362//362 363//363
f  364//364 365//365 366//366
f  367//367 368//368 369//369
f  370//370 371//371 372//372
f  373//373 374//374 375//375
f  376//376 377//377 378//378
f  379//379 380//380 381//381
f  382//382 383//383 384//384
f  385//385 386//386 387//387
f  388//388 389//389 390//390
f  391//391 392//392 393//393
f  394//394 395//395 396//396
f  397//397 398//398 399//399
f  400//400 401//401 402//402
f  403//403 404//404 405//405
f  406//406 407//407 408//408
f  409//409 410//410 411//411
f  412//412 413//413 414//414
f  415//415 416//416 417//417
f  418//418 419//419 420//420
f  421//421 422//422 423//423
f  424//424 425//425 426//426
f  427//427 428//428 429//429
f  430//430 431//431 432//432
f  433//433 434//434 435//435
f  436//436 437//437 438//438
f  439//439 440//440 441//441
f  442//442 443//443 444//444
f  445//445 446//446 447//447
f  448//448 449//449 450//450
f  451//451 452//452 453//453
f  454//454 455//455 456//456
f  457//457 458//458 459//459
f  460//460 461//461 462//462
f  463//463 464//464 465//465
f  466//466 467//467 468//468
f  469//469 470//470 471//471
f  472//472 473//473 474//474
f  475//475 476//476 477//477
f  478//478 479//479 480//480
f  481//481 482//482 483//483
f  484//484 485//485 486//486
f  487//487 488//488 489//489
f  490//490 491//491 492//492
f  493//493 494//494 495//495
f  496//496 497//497 498//498
f  499//499 500//500 501//501
f  502//502 503//503 504//504
f  505//505 506//506 507//507
f  508//508 509//509 510//510
f  511//511 512//512 513//513
f  514//514 515//515 516//516
f  517//517 518//518 519//519
f  520//520 521//521 522//522
f  523//523 524//524 525//525
f  526//526 527//527 528//528
f  529//529 530//530 531//531
f  532//532 533//533 534//534
f  535//535 536//536 537//537
f  538//538 539//539 540//540
f  541//541 542//542 543//543
f  544//544 545//545 546//546
f  547//547 548//548 549//549
f  550//550 551//551 552//552
f  553//553 554//554 555//555
f  556//556 557//557 558//558
f  559//559 560//560 561//561
f  562//562 563//563 564//564
f  565//565 566//566 567//567
f  568//568 569//569 570//570
f  571//571 572//572 573//573
f  574//574 575//575 576//576
f  577//577 578//578 579//579
f  580//580 581//581 582//582
f  583//583 584//584 585//585
f  586//586 587//587 588//588
f  589//589 590//590 591//591
f  592//592 593//593 594//594
f  595//595 596//596 597//597
f  598//598 599//599 600//600
f  601//601 602//602 603//603
f  604//604 605//605 606//606
f  607//607 608//608 609//609
f  610//610 611//611 612//612
f  613//613 614//614 615//615
f  616//616 617//617 618//618
f  619//619 620//620 621//621
f  622//622 623//623 624//624
f  625//625 626//626 627//627
f  628//628 629//629 630//630
f  631//631 632//632 633//633
f  634//634 635//635 636//636
f  637//637 638//638 639//639
f  640//640 641//641 642//642
f  643//643 644//644 645//645
f  646//646 647//647 648//648
f  649//649 650//650 651//651
f  652//652 653//653 654//654
f  655//655 656//656 657//657
f  658//658 659//659 660//660
f  661//661 662//662 663//663
f  664//664 665//665 666//666
f  667//667 668//668 669//669
f  670//670 671//671 672//672
f  673//673 674//674 675//675
f  676//676 677//677 678//678
f  679//679 680//680 681//681
f  682//682 683//683 684//684
f  685//685 686//686 687//687
f  688//688 689//689 690//690
f  691//691 692//692 693//693
f  694//694 695//695 696//696
f  697//697 698//698 699//699
f  700//700 701//701 702//702
f  703//703 704//704 705//705
f  706//706 707//707 708//708
f  709//709 710//710 711//711
f  712//712 713//713 714//714
f  715//715 716//716 717//717
f  718//718 719//719 720//720
f  721//721 722//722 723//723
f  724//724 725//725 726//726
f  727//727 728//728 729//729
f  730//730 731//731 732//732
f  733//733 734//734 735//735
f  736//736 737//737 738//738
f  739//739 740//740 741//741
f  742//742 743//743 744//744
f  745//745 746//746 747//747
f  748//748 749//749 750//750
f  751//751 752//752 753//753
f  754//754 755//755 756//756
f  757//757 758//758 759//759
f  760//760 761//761 762//762
f  763//763 764//764 765//765
f  766//766 767//767 768//768
f  769//769 770//770 771//771
f  772//772 773//773 774//774
f  775//775 776//776 777//777
f  778//778 779//779 780//780
f  781//781 782//782 783//783
f  784//784 785//785 786//786
f  787//787 788//788 789//789
f  790//790 791//791 792//792
f  793//793 794//794 795//795
f  796//796 797//797 798//798
f  799//799 800//800 801//801
f  802//802 803//803 804//804
f  805//805 806//806 807//807
f  808//808 809//809 810//810
f  811//811 812//812 813//813
f  814//814 815//815 816//816
f  817//817 818//818 819//819
f  820//820 821//821 822//822
f  823//823 824//824 825//825
f  826//826 827//827 828//828
f  829//829 830//830 831//831
f  832//832 833//833 834//834
f  835//835 836//836 837//837
f  838//838 839//839 840//840
f  841//841 842//842 843//843
f  844//844 845//845 846//846
f  847//847 848//848 849//849
f  850//850 851//851 852//852
f  853//853 854//854 855//855
f  856//856 857//857 858//858
f  859//859 860//860 861//861
f  862//862 863//863 864//864
f  865//865 866//866 867//867
f  868//868 869//869 870//870
f  871//871 872//872 873//873
f  874//874 875//875 876//876
f  877//877 878//878 879//879
f  880//880 881//881 882//882
f  883//883 884//884 885//885
f  886//886 887//887 888//888
f  889//889 890//890 891//891
f  892//892 893//893 894//894
f  895//895 896//896 897//897
f  898//898 899//899 900//900
f  901//901 902//902 903//903
f  904//904 905//905 906//906
f  907//907 908//908 909//909
f  910//910 911//911 912//912
f  913//913 914//914 915//915
f  916//916 917//917 918//918
f  919//919 920//920 921//921
f  922//922 923//923 924//924
f  925//925 926//926 927//927
f  928//928 929//929 930//930
f  931//931 932//932 933//933
f  934//934 935//935 936//936
f  937//937 938//938 939//939
f  940//940 941//941 942//942
f  943//943 944//944 945//945
f  946//946 947//947 948//948
f  949//949 950//950 951//951
f  952//952 953//953 954//954
f  955//955 956//956 957//957
f  958//958 959//959 960//960
f  961//961 962//962 963//963
f  964//964 965//965 966//966
f  967//967 968//968 969//969
f  970//970 971//971 972//972
f  973//973 974//974 975//975
f  976//976 977//977 978//978
f  979//979 980//980 981//981
f  982//982 983//983 984//984
f  985//985 986//986 987//987
f  988//988 989//989 990//990
f  991//991 992//992 993//993
f  994//994 995//995 996//996
f  997//997 998//998 999//999
f  1000//1000 1001//1001 1002//1002
f  1003//1003 1004//1004 1005//1005
f  1006//1006 1007//1007 1008//1008
f  1009//1009 1010//1010 1011//1011
f  1012//1012 1013//1013 1014//1014
f  1015//1015 1016//1016 1017//1017
f  1018//1018 1019//1019 1020//1020
f  1021//1021 1022//1022 1023//1023
f  1024//1024 1025//1025 1026//1026
f  1027//1027 1028//1028 1029//1029
f  1030//1030 1031//1031 1032//1032
f  1033//1033 1034//1034 1035//1035
f  1036//1036 1037//1037 1038//1038
f  1039//1039 1040//1040 1041//1041
f  1042//1042 1043//1043 1044//1044
f  1045//1045 1046//1046 1047//1047
f  1048//1048 1049//1049 1050//1050
f  1051//1051 1052//1052 1053//1053
f  1054//1054 1055//1055 1056//1056
f  1057//1057 1058//1058 1059//1059
f  1060//1060 1061//1061 1062//1062
f  1063//1063 1064//1064 1065//1065
f  1066//1066 1067//1067 1068//1068
f  1069//1069 1070//1070 1071//1071
f  1072//1072 1073//1073 1074//1074
f  1075//1075 1076//1076 1077//1077
f  1078//1078 1079//1079 1080//1080
f  1081//1081 1082//1082 1083//1083
f  1084//1084 1085//1085 1086//1086
f  1087//1087 1088//1088 1089//1089
f  1090//1090 1091//1091 1092//1092
f  1093//1093 1094//1094 1095//1095
f  1096//1096 1097//1097 1098//1098
f  1099//1099 1100//1100 1101//1101
f  1102//1102 1103//1103 1104//1104
f  1105//1105 1106//1106 1107//1107
f  1108//1108 1109//1109 1110//1110
f  1111//1111 1112//1112 1113//1113
f  1114//1114 1115//1115 1116//1116
f  1117//1117 1118//1118 1119//1119
f  1120//1120 1121//1121 1122//1122
f  1123//1123 1124//1124 1125//1125
f  1126//1126 1127//1127 1128//1128

